G04*
G04 #@! TF.GenerationSoftware,Altium Limited,Altium Designer,18.1.9 (240)*
G04*
G04 Layer_Physical_Order=2*
G04 Layer_Color=16711680*
%FSLAX24Y24*%
%MOIN*%
G70*
G01*
G75*
%ADD15C,0.0100*%
%ADD43R,0.0961X0.0961*%
%ADD44C,0.0807*%
%ADD45C,0.0512*%
%ADD46C,0.0591*%
%ADD47R,0.0591X0.0591*%
%ADD48R,0.0591X0.0591*%
%ADD49C,0.0500*%
D15*
X20400Y34650D02*
X24000D01*
X18920Y30420D02*
X22000Y33500D01*
Y33350D02*
Y33500D01*
X24000Y34650D02*
X26010Y32640D01*
X19300Y35550D02*
Y36375D01*
X18550Y34800D02*
X19300Y35550D01*
X18550Y34500D02*
Y34800D01*
Y34500D02*
X19268Y33782D01*
Y32500D02*
Y33782D01*
X33295Y14035D02*
X36970D01*
X31475D02*
X33295D01*
X33510Y26490D02*
X35690Y24310D01*
X17740Y14540D02*
X29690D01*
X31850Y16700D01*
X35140D01*
X35390Y16950D01*
X36050D01*
X36550Y17450D01*
X16452Y18452D02*
X16600Y18600D01*
X14330Y18452D02*
X16452D01*
X12758Y16880D02*
X14330Y18452D01*
X1560Y16880D02*
X12758D01*
X1530Y16850D02*
X1560Y16880D01*
X1530Y16200D02*
Y16850D01*
Y16200D02*
X1865Y15865D01*
X2205D01*
X2370Y15700D01*
Y15040D02*
Y15700D01*
X2360Y15030D02*
X2370Y15040D01*
X1600Y15030D02*
X2360D01*
X1190Y15440D02*
X1600Y15030D01*
X1190Y15440D02*
Y21690D01*
X1950Y22450D01*
X9650Y26490D02*
X20790D01*
X25200Y22080D01*
X25460D01*
X26245Y22865D01*
X35800D01*
X36050Y22615D01*
Y22200D02*
Y22615D01*
Y22200D02*
X36380Y21870D01*
X36970D01*
X37140Y21700D01*
Y17040D02*
Y21700D01*
X36550Y16450D02*
X37140Y17040D01*
X20010Y13440D02*
X29900D01*
X31330Y14870D01*
X36130D01*
X36550Y14450D01*
X17665Y765D02*
X18250Y1350D01*
X13635Y765D02*
X17665D01*
X2530Y11870D02*
X13635Y765D01*
X21750Y17400D02*
Y18000D01*
X23200Y19450D01*
X35550D01*
X22250Y1350D02*
Y3580D01*
X21860Y3970D02*
X22250Y3580D01*
X24970Y21430D02*
X25442Y21902D01*
X35002D01*
X35550Y22450D01*
X35970Y23030D02*
X36550Y22450D01*
X35970Y23030D02*
Y23700D01*
X35800Y23870D02*
X35970Y23700D01*
X26260Y23870D02*
X35800D01*
X25610Y23220D02*
X26260Y23870D01*
X36050Y19950D02*
X36550Y20450D01*
X23015Y19950D02*
X36050D01*
X22270Y19205D02*
X23015Y19950D01*
X23910Y21080D02*
X24110Y20880D01*
X26974D01*
X27209Y21115D01*
X27856D01*
X28091Y20880D01*
X36800D01*
X36970Y20710D01*
Y18870D02*
Y20710D01*
X36550Y18450D02*
X36970Y18870D01*
X1950Y18450D02*
X2390Y18890D01*
X11810D01*
X13376Y20456D01*
X15596D01*
X16390Y21250D01*
X20090D01*
X20790Y21950D01*
X21670D01*
X22200Y21420D01*
Y20270D02*
Y21420D01*
X22000Y20070D02*
X22200Y20270D01*
X21160Y21305D02*
Y21580D01*
X20885Y21030D02*
X21160Y21305D01*
X18490Y21030D02*
X20885D01*
X18190Y20729D02*
X18490Y21030D01*
X18190Y18620D02*
Y20729D01*
X17796Y18226D02*
X18190Y18620D01*
X14729Y18226D02*
X17796D01*
X12953Y16450D02*
X14729Y18226D01*
X2950Y16450D02*
X12953D01*
X21120Y20540D02*
X21830Y21250D01*
X21120Y17200D02*
Y20540D01*
X20400Y16480D02*
X21120Y17200D01*
X18850Y16480D02*
X20400D01*
X17240Y14870D02*
X18850Y16480D01*
X2535Y14870D02*
X17240D01*
X1950Y14450D02*
X2535Y14870D01*
X2950Y19450D02*
X10980D01*
X12730Y21200D01*
X15350D01*
X16000Y21850D01*
X17050D01*
X18356Y22737D02*
X18850Y23231D01*
X17277Y22737D02*
X18356D01*
X17100Y22560D02*
X17277Y22737D01*
X13260Y22560D02*
X17100D01*
X12150Y21450D02*
X13260Y22560D01*
X2950Y21450D02*
X12150D01*
X20196Y23860D02*
X20420Y23636D01*
X3360Y23860D02*
X20196D01*
X2950Y23450D02*
X3360Y23860D01*
X19010Y22850D02*
X19995D01*
X18727Y22567D02*
X19010Y22850D01*
X17375Y22567D02*
X18727D01*
X17198Y22390D02*
X17375Y22567D01*
X13332Y22390D02*
X17198D01*
X11892Y20950D02*
X13332Y22390D01*
X1600Y20950D02*
X11892D01*
X1360Y20710D02*
X1600Y20950D01*
X1360Y16040D02*
Y20710D01*
Y16040D02*
X1950Y15450D01*
X15665Y9295D02*
X17050Y10680D01*
X15665Y1100D02*
Y9295D01*
X15500Y935D02*
X15665Y1100D01*
X14665Y935D02*
X15500D01*
X14250Y1350D02*
X14665Y935D01*
X36970Y14035D02*
Y15030D01*
X36550Y15450D02*
X36970Y15030D01*
X7410Y14020D02*
X16275D01*
X11020Y18150D02*
X11340Y18470D01*
X13304D01*
X13666Y18832D01*
X15372D01*
X16284Y19744D01*
X16884D01*
X17480Y20340D01*
X14190Y20060D02*
X15983D01*
X16633Y20710D01*
X17740D01*
X17850Y20600D01*
Y20000D02*
Y20600D01*
X17220Y19370D02*
X17850Y20000D01*
X16600Y19370D02*
X17220D01*
X18463Y22397D02*
X18830Y22030D01*
X17723Y22397D02*
X18463D01*
X17545Y22220D02*
X17723Y22397D01*
X15700Y22220D02*
X17545D01*
X15270Y21790D02*
X15700Y22220D01*
X23140Y20980D02*
X23500Y20620D01*
X27370D01*
X15200Y16540D02*
X18170D01*
X14890Y16850D02*
X15200Y16540D01*
X14890Y16850D02*
X20020D01*
X20550Y17380D01*
X17435Y23160D02*
X18070D01*
X17035Y22760D02*
X17435Y23160D01*
X5840Y22760D02*
X17035D01*
X5520Y22440D02*
X5840Y22760D01*
X17320Y21420D02*
X17920Y22020D01*
X16274Y21420D02*
X17320D01*
X15480Y20626D02*
X16274Y21420D01*
X12900Y20626D02*
X15480D01*
X12600Y20326D02*
X12900Y20626D01*
X25340Y22500D02*
X25510D01*
X26380Y23370D01*
X31180D01*
X26010Y29220D02*
Y32640D01*
X15470Y14450D02*
X16900D01*
X17490Y13860D01*
Y10320D02*
Y13860D01*
X16800Y9630D02*
X17490Y10320D01*
X16250Y9200D02*
X16800Y9630D01*
X16250Y1350D02*
Y9200D01*
X31284Y14450D02*
X35550D01*
X19250Y2416D02*
X31284Y14450D01*
X19250Y1350D02*
Y2416D01*
X25310Y23850D02*
X25770Y24310D01*
X35690D01*
X36550Y23450D01*
X20920Y14170D02*
X29820D01*
X32100Y16450D01*
X35550D01*
X15250Y1350D02*
Y1730D01*
X3320Y13660D02*
X15250Y1730D01*
X2450Y25430D02*
X7440Y30420D01*
X18920D01*
X31980Y20240D02*
X32250Y20510D01*
X23140Y20240D02*
X31980D01*
X22940Y20440D02*
X23140Y20240D01*
X21120Y24400D02*
X23510Y22010D01*
X4900Y24400D02*
X21120D01*
X14890Y17850D02*
X14960Y17920D01*
X20750D01*
X36050Y15950D02*
X36550Y16450D01*
X32100Y15950D02*
X36050D01*
X29947Y13797D02*
X32100Y15950D01*
X20723Y13797D02*
X29947D01*
X20550Y13970D02*
X20723Y13797D01*
X18960Y13970D02*
X20550D01*
X1950Y16450D02*
X2420Y15980D01*
X13280D01*
X14520Y17220D01*
X19080D01*
X1530Y20030D02*
X1950Y20450D01*
X1530Y18200D02*
Y20030D01*
Y18200D02*
X1700Y18030D01*
X10270D01*
X10520Y17780D01*
X13098D01*
X13948Y18631D01*
X15891D01*
X16230Y18970D01*
X17269D01*
X17439Y18800D01*
X20710Y22120D02*
X22370D01*
X20620Y22030D02*
X20710Y22120D01*
X18830Y22030D02*
X20620D01*
X25740Y21450D02*
X35550D01*
X25340Y21050D02*
X25740Y21450D01*
X24603Y21050D02*
X25340D01*
X24203Y21450D02*
X24603Y21050D01*
X22700Y21450D02*
X24203D01*
X22570Y21320D02*
X22700Y21450D01*
X22570Y19800D02*
Y21320D01*
X22470Y19700D02*
X22570Y19800D01*
X21960Y19700D02*
X22470D01*
X21320Y19060D02*
X21960Y19700D01*
X21320Y16810D02*
Y19060D01*
X23830Y4570D02*
X33295Y14035D01*
X23830Y1160D02*
Y4570D01*
X23600Y930D02*
X23830Y1160D01*
X19000Y930D02*
X23600D01*
X18750Y1180D02*
X19000Y930D01*
X18750Y1180D02*
Y7280D01*
X17050Y8980D02*
X18750Y7280D01*
X2950Y14450D02*
X15470D01*
X34973Y16873D02*
X35550Y17450D01*
X27220Y16873D02*
X34973D01*
X27101Y16992D02*
X27220Y16873D01*
X22539Y16992D02*
X27101D01*
X22420Y16873D02*
X22539Y16992D01*
X22420Y15380D02*
Y16873D01*
X22000Y14960D02*
X22420Y15380D01*
X18970Y14960D02*
X22000D01*
X18830Y15100D02*
X18970Y14960D01*
X18830Y15100D02*
Y15870D01*
X19400Y15350D02*
X21272D01*
X22100Y16178D01*
Y16840D01*
X22520Y17260D01*
X33740D01*
X19905Y16073D02*
X21543D01*
X21930Y16460D01*
Y17034D01*
X22452Y17556D01*
X23194D01*
X23568Y17930D01*
X36030D01*
X36050Y17950D01*
Y18950D01*
X36550Y19450D01*
X2950Y17450D02*
X6090D01*
X16640Y20050D02*
X16780Y20190D01*
X16250Y20050D02*
X16640D01*
X15640Y19440D02*
X16250Y20050D01*
X13620Y19440D02*
X15640D01*
X12900Y18720D02*
X13620Y19440D01*
X8200Y18720D02*
X12900D01*
X7940Y18460D02*
X8200Y18720D01*
X19200Y22480D02*
X20270D01*
X20790Y23000D01*
Y23800D01*
X20560Y24030D02*
X20790Y23800D01*
X2450Y24030D02*
X20560D01*
X13100Y29660D02*
X23570D01*
X26230Y27000D01*
X1530Y22970D02*
X16380D01*
X17020Y23610D01*
X19060D01*
X19420Y23250D01*
X35210Y18110D02*
X35550Y18450D01*
X22592Y18110D02*
X35210D01*
X22408Y17926D02*
X22592Y18110D01*
X26590Y16360D02*
X26850Y16620D01*
X22790Y16360D02*
X26590D01*
X36550Y22450D02*
X36880Y22120D01*
X37000D01*
X37310Y21810D01*
Y14039D02*
Y21810D01*
X24621Y1350D02*
X37310Y14039D01*
X24250Y1350D02*
X24621D01*
X23400Y26490D02*
X33510D01*
D43*
X18221Y33603D02*
D03*
Y35697D02*
D03*
X20315Y33603D02*
D03*
Y35697D02*
D03*
D44*
X19268Y34650D02*
D03*
D45*
X18260Y28750D02*
D03*
X17040D02*
D03*
D46*
X14250Y1350D02*
D03*
X15250D02*
D03*
X16250D02*
D03*
X17250D02*
D03*
X18250D02*
D03*
X19250D02*
D03*
X20250D02*
D03*
X21250D02*
D03*
X22250D02*
D03*
X23250D02*
D03*
X35550Y23450D02*
D03*
Y22450D02*
D03*
Y21450D02*
D03*
Y20450D02*
D03*
Y19450D02*
D03*
Y18450D02*
D03*
Y17450D02*
D03*
Y16450D02*
D03*
Y15450D02*
D03*
Y14450D02*
D03*
X36550Y23450D02*
D03*
Y22450D02*
D03*
Y21450D02*
D03*
Y20450D02*
D03*
Y19450D02*
D03*
Y18450D02*
D03*
Y17450D02*
D03*
Y16450D02*
D03*
Y15450D02*
D03*
X1950Y23450D02*
D03*
Y22450D02*
D03*
Y21450D02*
D03*
Y20450D02*
D03*
Y19450D02*
D03*
Y18450D02*
D03*
Y17450D02*
D03*
Y16450D02*
D03*
Y15450D02*
D03*
Y14450D02*
D03*
X2950Y23450D02*
D03*
Y22450D02*
D03*
Y21450D02*
D03*
Y20450D02*
D03*
Y19450D02*
D03*
Y18450D02*
D03*
Y17450D02*
D03*
Y16450D02*
D03*
Y15450D02*
D03*
D47*
X24250Y1350D02*
D03*
D48*
X36550Y14450D02*
D03*
X2950D02*
D03*
D49*
X20400Y34650D02*
D03*
X22000Y33350D02*
D03*
X19300Y36375D02*
D03*
X19268Y32500D02*
D03*
X17740Y14540D02*
D03*
X16600Y18600D02*
D03*
X9650Y26490D02*
D03*
X20010Y13440D02*
D03*
X2530Y11870D02*
D03*
X21750Y17400D02*
D03*
X21860Y3970D02*
D03*
X24970Y21430D02*
D03*
X25610Y23220D02*
D03*
X22270Y19205D02*
D03*
X23910Y21080D02*
D03*
X22000Y20070D02*
D03*
X21160Y21580D02*
D03*
X21830Y21250D02*
D03*
X17050Y21850D02*
D03*
X18850Y23231D02*
D03*
X20420Y23636D02*
D03*
X19995Y22850D02*
D03*
X17050Y10680D02*
D03*
X31475Y14035D02*
D03*
X16275Y14020D02*
D03*
X7410D02*
D03*
X11020Y18150D02*
D03*
X17480Y20340D02*
D03*
X14190Y20060D02*
D03*
X16600Y19370D02*
D03*
X15270Y21790D02*
D03*
X23140Y20980D02*
D03*
X27370Y20620D02*
D03*
X18170Y16540D02*
D03*
X14890Y16850D02*
D03*
X20550Y17380D02*
D03*
X18070Y23160D02*
D03*
X5520Y22440D02*
D03*
X17920Y22020D02*
D03*
X12600Y20326D02*
D03*
X25340Y22500D02*
D03*
X31180Y23370D02*
D03*
X26010Y29220D02*
D03*
X25310Y23850D02*
D03*
X20920Y14170D02*
D03*
X3320Y13660D02*
D03*
X2450Y25430D02*
D03*
X32250Y20510D02*
D03*
X22940Y20440D02*
D03*
X23510Y22010D02*
D03*
X4900Y24400D02*
D03*
X14890Y17850D02*
D03*
X20750Y17920D02*
D03*
X18960Y13970D02*
D03*
X19080Y17220D02*
D03*
X17439Y18800D02*
D03*
X22370Y22120D02*
D03*
X18830Y22030D02*
D03*
X21320Y16810D02*
D03*
X17050Y8980D02*
D03*
X15470Y14450D02*
D03*
X18830Y15870D02*
D03*
X19400Y15350D02*
D03*
X33740Y17260D02*
D03*
X19905Y16073D02*
D03*
X6090Y17450D02*
D03*
X16780Y20190D02*
D03*
X7940Y18460D02*
D03*
X19200Y22480D02*
D03*
X2450Y24030D02*
D03*
X13100Y29660D02*
D03*
X26230Y27000D02*
D03*
X1530Y22970D02*
D03*
X19420Y23250D02*
D03*
X22408Y17926D02*
D03*
X26850Y16620D02*
D03*
X22790Y16360D02*
D03*
X23400Y26490D02*
D03*
M02*
