G04*
G04 #@! TF.GenerationSoftware,Altium Limited,Altium Designer,18.1.9 (240)*
G04*
G04 Layer_Color=8421504*
%FSLAX24Y24*%
%MOIN*%
G70*
G01*
G75*
G04:AMPARAMS|DCode=16|XSize=66.9mil|YSize=45.3mil|CornerRadius=0mil|HoleSize=0mil|Usage=FLASHONLY|Rotation=225.000|XOffset=0mil|YOffset=0mil|HoleType=Round|Shape=Rectangle|*
%AMROTATEDRECTD16*
4,1,4,0.0077,0.0397,0.0397,0.0077,-0.0077,-0.0397,-0.0397,-0.0077,0.0077,0.0397,0.0*
%
%ADD16ROTATEDRECTD16*%

G04:AMPARAMS|DCode=17|XSize=157.5mil|YSize=275.6mil|CornerRadius=0mil|HoleSize=0mil|Usage=FLASHONLY|Rotation=45.000|XOffset=0mil|YOffset=0mil|HoleType=Round|Shape=Rectangle|*
%AMROTATEDRECTD17*
4,1,4,0.0418,-0.1531,-0.1531,0.0418,-0.0418,0.1531,0.1531,-0.0418,0.0418,-0.1531,0.0*
%
%ADD17ROTATEDRECTD17*%

G04:AMPARAMS|DCode=18|XSize=66.9mil|YSize=45.3mil|CornerRadius=0mil|HoleSize=0mil|Usage=FLASHONLY|Rotation=135.000|XOffset=0mil|YOffset=0mil|HoleType=Round|Shape=Rectangle|*
%AMROTATEDRECTD18*
4,1,4,0.0397,-0.0077,0.0077,-0.0397,-0.0397,0.0077,-0.0077,0.0397,0.0397,-0.0077,0.0*
%
%ADD18ROTATEDRECTD18*%

%ADD19R,0.0350X0.0402*%
%ADD20R,0.0453X0.0669*%
%ADD21R,0.0433X0.0571*%
%ADD22O,0.0138X0.0531*%
%ADD23R,0.0571X0.0551*%
%ADD24O,0.0094X0.0236*%
%ADD25O,0.0236X0.0094*%
D16*
X33100Y28700D02*
D03*
X33977Y27823D02*
D03*
X29450Y32100D02*
D03*
X30327Y31223D02*
D03*
D17*
X28066Y4316D02*
D03*
X30850Y7100D02*
D03*
D18*
X9650Y32250D02*
D03*
X8773Y31373D02*
D03*
X5250Y28050D02*
D03*
X6127Y28927D02*
D03*
D19*
X27019Y17700D02*
D03*
X26381D02*
D03*
X27200Y9850D02*
D03*
X26562D02*
D03*
X30831Y24350D02*
D03*
X31469D02*
D03*
X12850Y12500D02*
D03*
X12212D02*
D03*
X7231Y16300D02*
D03*
X7869D02*
D03*
X7919Y21650D02*
D03*
X7281D02*
D03*
D20*
X13220Y16250D02*
D03*
X11980D02*
D03*
X30530Y22150D02*
D03*
X31770D02*
D03*
X30530Y19900D02*
D03*
X31770D02*
D03*
X26130Y19650D02*
D03*
X27370D02*
D03*
X26010Y28550D02*
D03*
X27250D02*
D03*
X30530Y10900D02*
D03*
X31770D02*
D03*
X30530Y15400D02*
D03*
X31770D02*
D03*
X12010Y14250D02*
D03*
X13250D02*
D03*
X26130Y21900D02*
D03*
X27370D02*
D03*
X6980Y12800D02*
D03*
X8220D02*
D03*
X13250Y9800D02*
D03*
X12010D02*
D03*
X7030Y19800D02*
D03*
X8270D02*
D03*
X8320Y23500D02*
D03*
X7080D02*
D03*
X27370Y26150D02*
D03*
X26130D02*
D03*
X30480Y26400D02*
D03*
X31720D02*
D03*
X27370Y13350D02*
D03*
X26130D02*
D03*
X27370Y15850D02*
D03*
X26130D02*
D03*
X11983Y25500D02*
D03*
X13224D02*
D03*
X26100Y24100D02*
D03*
X27340D02*
D03*
X11983Y23450D02*
D03*
X13224D02*
D03*
X30500Y13150D02*
D03*
X31740D02*
D03*
X22160Y28600D02*
D03*
X23400D02*
D03*
X30500Y17650D02*
D03*
X31740D02*
D03*
D21*
X12974Y17800D02*
D03*
X12226D02*
D03*
X12974Y19750D02*
D03*
X12226D02*
D03*
X12974Y21600D02*
D03*
X12226D02*
D03*
X13100Y28800D02*
D03*
X12352D02*
D03*
X22950Y9800D02*
D03*
X22202D02*
D03*
X27200Y11600D02*
D03*
X26452D02*
D03*
X7199Y14750D02*
D03*
X7947D02*
D03*
X17798Y9800D02*
D03*
X17050D02*
D03*
X7176Y17850D02*
D03*
X7924D02*
D03*
X7350Y25550D02*
D03*
X8098D02*
D03*
D22*
X24166Y33674D02*
D03*
X24422D02*
D03*
X24678D02*
D03*
X24934D02*
D03*
X24166Y35426D02*
D03*
X24422D02*
D03*
X24678D02*
D03*
X24934D02*
D03*
D23*
X10900Y4300D02*
D03*
Y6300D02*
D03*
X9223Y4300D02*
D03*
Y6300D02*
D03*
D24*
X18617Y21039D02*
D03*
X18814D02*
D03*
X19011D02*
D03*
X19208D02*
D03*
X19405D02*
D03*
X19602D02*
D03*
X19798D02*
D03*
X19995D02*
D03*
X20192D02*
D03*
X20389D02*
D03*
X20586D02*
D03*
X20783D02*
D03*
Y18361D02*
D03*
X20586D02*
D03*
X20389D02*
D03*
X20192D02*
D03*
X19995D02*
D03*
X19798D02*
D03*
X19602D02*
D03*
X19405D02*
D03*
X19208D02*
D03*
X19011D02*
D03*
X18814D02*
D03*
X18617D02*
D03*
D25*
X21039Y20783D02*
D03*
Y20586D02*
D03*
Y20389D02*
D03*
Y20192D02*
D03*
Y19995D02*
D03*
Y19798D02*
D03*
Y19602D02*
D03*
Y19405D02*
D03*
Y19208D02*
D03*
Y19011D02*
D03*
Y18814D02*
D03*
Y18617D02*
D03*
X18361D02*
D03*
Y18814D02*
D03*
Y19011D02*
D03*
Y19208D02*
D03*
Y19405D02*
D03*
Y19602D02*
D03*
Y19798D02*
D03*
Y19995D02*
D03*
Y20192D02*
D03*
Y20389D02*
D03*
Y20586D02*
D03*
Y20783D02*
D03*
M02*
