G04*
G04 #@! TF.GenerationSoftware,Altium Limited,Altium Designer,18.1.9 (240)*
G04*
G04 Layer_Color=65535*
%FSLAX24Y24*%
%MOIN*%
G70*
G01*
G75*
%ADD10C,0.0098*%
%ADD11C,0.0236*%
%ADD12C,0.0039*%
%ADD13C,0.0079*%
%ADD14C,0.0080*%
%ADD15C,0.0100*%
D10*
X23930Y33674D02*
G03*
X23930Y33674I-49J0D01*
G01*
X18411Y21046D02*
G03*
X18411Y21046I-49J0D01*
G01*
D11*
X24452Y34491D02*
G03*
X24452Y34491I-118J0D01*
G01*
D12*
X8861Y6776D02*
G03*
X8861Y6776I-20J0D01*
G01*
D13*
X18105Y29152D02*
G03*
X17182Y29146I-459J-402D01*
G01*
X17186Y28354D02*
G03*
X18109Y28348I464J396D01*
G01*
X33622Y28596D02*
X33873Y28345D01*
X33204Y28178D02*
X33455Y27927D01*
X29972Y31996D02*
X30223Y31745D01*
X29554Y31578D02*
X29805Y31327D01*
X9295Y31477D02*
X9546Y31728D01*
X8877Y31895D02*
X9128Y32146D01*
X5354Y28572D02*
X5605Y28823D01*
X5772Y28154D02*
X6023Y28405D01*
X26661Y17539D02*
X26739D01*
X26661Y17861D02*
X26739D01*
X12423Y15955D02*
X12777D01*
X12423Y16545D02*
X12777D01*
X12561Y17554D02*
X12639D01*
X12561Y18046D02*
X12639D01*
X12561Y19504D02*
X12639D01*
X12561Y19996D02*
X12639D01*
X12561Y21354D02*
X12639D01*
X12561Y21846D02*
X12639D01*
X12687Y28554D02*
X12765D01*
X12687Y29046D02*
X12765D01*
X22537Y9554D02*
X22615D01*
X22537Y10046D02*
X22615D01*
X26787Y11354D02*
X26865D01*
X26787Y11846D02*
X26865D01*
X26842Y9689D02*
X26920D01*
X26842Y10011D02*
X26920D01*
X31111Y24511D02*
X31189D01*
X31111Y24189D02*
X31189D01*
X12492Y12339D02*
X12570D01*
X12492Y12661D02*
X12570D01*
X7534Y14996D02*
X7613D01*
X7534Y14504D02*
X7613D01*
X17385Y9554D02*
X17463D01*
X17385Y10046D02*
X17463D01*
X7511Y18096D02*
X7589D01*
X7511Y17604D02*
X7589D01*
X7511Y16461D02*
X7589D01*
X7511Y16139D02*
X7589D01*
X7561Y21489D02*
X7639D01*
X7561Y21811D02*
X7639D01*
X23940Y34097D02*
X25160D01*
X23940Y35003D02*
X25160D01*
X23940Y34097D02*
Y35003D01*
X25160Y34097D02*
Y35003D01*
X30973Y22445D02*
X31327D01*
X30973Y21855D02*
X31327D01*
X8998Y3824D02*
X11124D01*
X8998Y6776D02*
X11124D01*
Y3824D02*
Y3867D01*
Y6733D02*
Y6776D01*
X8998Y3824D02*
Y3867D01*
Y6733D02*
Y6776D01*
X30973Y20195D02*
X31327D01*
X30973Y19605D02*
X31327D01*
X26573Y19945D02*
X26927D01*
X26573Y19355D02*
X26927D01*
X26453Y28845D02*
X26807D01*
X26453Y28255D02*
X26807D01*
X30973Y11195D02*
X31327D01*
X30973Y10605D02*
X31327D01*
X30973Y15695D02*
X31327D01*
X30973Y15105D02*
X31327D01*
X12453Y14545D02*
X12807D01*
X12453Y13955D02*
X12807D01*
X26573Y22195D02*
X26927D01*
X26573Y21605D02*
X26927D01*
X7423Y13095D02*
X7777D01*
X7423Y12505D02*
X7777D01*
X12453Y9505D02*
X12807D01*
X12453Y10095D02*
X12807D01*
X7473Y20095D02*
X7827D01*
X7473Y19505D02*
X7827D01*
X7523Y23205D02*
X7877D01*
X7523Y23795D02*
X7877D01*
X26573Y25855D02*
X26927D01*
X26573Y26445D02*
X26927D01*
X30923Y26695D02*
X31277D01*
X30923Y26105D02*
X31277D01*
X26573Y13055D02*
X26927D01*
X26573Y13645D02*
X26927D01*
X26573Y15555D02*
X26927D01*
X26573Y16145D02*
X26927D01*
X18480Y20586D02*
X19070D01*
Y20783D01*
X18480D02*
X19070D01*
X20783Y18480D02*
X20920Y18617D01*
X18480D02*
X18617Y18480D01*
X20783Y20920D02*
X20920Y20783D01*
X18480D02*
X18617Y20920D01*
Y18480D02*
X20783D01*
X18617Y20920D02*
X20783D01*
X20920Y18617D02*
Y20783D01*
X18480Y18617D02*
Y20783D01*
X7685Y25304D02*
X7763D01*
X7685Y25796D02*
X7763D01*
X12426Y25205D02*
X12781D01*
X12426Y25795D02*
X12781D01*
X26543Y23805D02*
X26897D01*
X26543Y24395D02*
X26897D01*
X12426Y23155D02*
X12781D01*
X12426Y23745D02*
X12781D01*
X30943Y12855D02*
X31297D01*
X30943Y13445D02*
X31297D01*
X22603Y28305D02*
X22957D01*
X22603Y28895D02*
X22957D01*
X30943Y17355D02*
X31297D01*
X30943Y17945D02*
X31297D01*
X13750Y850D02*
X24000D01*
X24750D01*
Y1850D01*
X13750D02*
X24750D01*
X13750Y850D02*
Y1850D01*
X35050Y13950D02*
Y23950D01*
Y13950D02*
X37050D01*
Y23950D01*
X35050D02*
X37050D01*
X1450Y13950D02*
Y23950D01*
Y13950D02*
X3450D01*
Y23950D01*
X1450D02*
X3450D01*
D14*
X35750Y24383D02*
Y24050D01*
X35417Y24383D01*
X35333D01*
X35250Y24300D01*
Y24133D01*
X35333Y24050D01*
Y24550D02*
X35250Y24633D01*
Y24800D01*
X35333Y24883D01*
X35667D01*
X35750Y24800D01*
Y24633D01*
X35667Y24550D01*
X35333D01*
X36750Y24050D02*
Y24217D01*
Y24133D01*
X36250D01*
X36333Y24050D01*
Y24467D02*
X36250Y24550D01*
Y24716D01*
X36333Y24800D01*
X36667D01*
X36750Y24716D01*
Y24550D01*
X36667Y24467D01*
X36333D01*
X35750Y13650D02*
Y13817D01*
Y13733D01*
X35250D01*
X35333Y13650D01*
X35750Y13250D02*
Y13417D01*
Y13333D01*
X35250D01*
X35333Y13250D01*
X36950Y13650D02*
Y13817D01*
Y13733D01*
X36450D01*
X36533Y13650D01*
X2150Y24383D02*
Y24050D01*
X1817Y24383D01*
X1733D01*
X1650Y24300D01*
Y24133D01*
X1733Y24050D01*
Y24550D02*
X1650Y24633D01*
Y24800D01*
X1733Y24883D01*
X2067D01*
X2150Y24800D01*
Y24633D01*
X2067Y24550D01*
X1733D01*
X3150Y24050D02*
Y24217D01*
Y24133D01*
X2650D01*
X2733Y24050D01*
Y24467D02*
X2650Y24550D01*
Y24716D01*
X2733Y24800D01*
X3067D01*
X3150Y24716D01*
Y24550D01*
X3067Y24467D01*
X2733D01*
X2150Y13650D02*
Y13817D01*
Y13733D01*
X1650D01*
X1733Y13650D01*
X2150Y13250D02*
Y13417D01*
Y13333D01*
X1650D01*
X1733Y13250D01*
X3350Y13650D02*
Y13817D01*
Y13733D01*
X2850D01*
X2933Y13650D01*
D15*
X4850Y29726D02*
Y30326D01*
X5150D01*
X5250Y30226D01*
Y30026D01*
X5150Y29926D01*
X4850D01*
X5050D02*
X5250Y29726D01*
X5750D02*
X5550D01*
X5450Y29826D01*
Y30026D01*
X5550Y30126D01*
X5750D01*
X5850Y30026D01*
Y29926D01*
X5450D01*
X6449Y30326D02*
Y29726D01*
X6150D01*
X6050Y29826D01*
Y30026D01*
X6150Y30126D01*
X6449D01*
X29050Y32900D02*
Y33500D01*
X29350D01*
X29450Y33400D01*
Y33200D01*
X29350Y33100D01*
X29050D01*
X29250D02*
X29450Y32900D01*
X30050D02*
X29650D01*
X30050Y33300D01*
Y33400D01*
X29950Y33500D01*
X29750D01*
X29650Y33400D01*
X8366Y33053D02*
Y33652D01*
X8666D01*
X8766Y33552D01*
Y33352D01*
X8666Y33252D01*
X8366D01*
X8566D02*
X8766Y33053D01*
X8966D02*
X9166D01*
X9066D01*
Y33652D01*
X8966Y33552D01*
X31800Y30000D02*
X31700Y30100D01*
X31500D01*
X31400Y30000D01*
Y29600D01*
X31500Y29500D01*
X31700D01*
X31800Y29600D01*
Y29800D01*
X31600D01*
X32000Y29900D02*
Y29500D01*
Y29700D01*
X32100Y29800D01*
X32200Y29900D01*
X32300D01*
X32900Y29500D02*
X32700D01*
X32600Y29600D01*
Y29800D01*
X32700Y29900D01*
X32900D01*
X32999Y29800D01*
Y29700D01*
X32600D01*
X33499Y29500D02*
X33299D01*
X33199Y29600D01*
Y29800D01*
X33299Y29900D01*
X33499D01*
X33599Y29800D01*
Y29700D01*
X33199D01*
X33799Y29500D02*
Y29900D01*
X34099D01*
X34199Y29800D01*
Y29500D01*
X16848Y30300D02*
Y30200D01*
X17048Y30000D01*
X17248Y30200D01*
Y30300D01*
X17048Y30000D02*
Y29700D01*
X17447D02*
X17647D01*
X17547D01*
Y30300D01*
X17447Y30200D01*
X21900Y32600D02*
Y33200D01*
X22200D01*
X22300Y33100D01*
Y32900D01*
X22200Y32800D01*
X21900D01*
X22100D02*
X22300Y32600D01*
X22900Y33200D02*
X22500D01*
Y32900D01*
X22700D01*
X22500D01*
Y32600D01*
X24099Y33100D02*
X23999Y33200D01*
X23799D01*
X23699Y33100D01*
Y33000D01*
X23799Y32900D01*
X23999D01*
X24099Y32800D01*
Y32700D01*
X23999Y32600D01*
X23799D01*
X23699Y32700D01*
X24299Y33000D02*
Y32700D01*
X24399Y32600D01*
X24499Y32700D01*
X24599Y32600D01*
X24699Y32700D01*
Y33000D01*
X24899Y32600D02*
X25099D01*
X24999D01*
Y33000D01*
X24899D01*
X25499Y33100D02*
Y33000D01*
X25399D01*
X25599D01*
X25499D01*
Y32700D01*
X25599Y32600D01*
X26299Y33000D02*
X25999D01*
X25899Y32900D01*
Y32700D01*
X25999Y32600D01*
X26299D01*
X26499Y33200D02*
Y32600D01*
Y32900D01*
X26598Y33000D01*
X26798D01*
X26898Y32900D01*
Y32600D01*
X30350Y22890D02*
Y23490D01*
X30650D01*
X30750Y23390D01*
Y23190D01*
X30650Y23090D01*
X30350D01*
X30550D02*
X30750Y22890D01*
X30950Y23390D02*
X31050Y23490D01*
X31250D01*
X31350Y23390D01*
Y23290D01*
X31250Y23190D01*
X31150D01*
X31250D01*
X31350Y23090D01*
Y22990D01*
X31250Y22890D01*
X31050D01*
X30950Y22990D01*
X31949Y23490D02*
X31550D01*
Y23190D01*
X31750Y23290D01*
X31850D01*
X31949Y23190D01*
Y22990D01*
X31850Y22890D01*
X31650D01*
X31550Y22990D01*
X32149Y22890D02*
X32349D01*
X32249D01*
Y23490D01*
X32149Y23390D01*
X13810Y2190D02*
Y2790D01*
X14110D01*
X14210Y2690D01*
Y2490D01*
X14110Y2390D01*
X13810D01*
X14710Y2190D02*
Y2790D01*
X14410Y2490D01*
X14810D01*
X9206Y7725D02*
X9006D01*
X8906Y7625D01*
Y7225D01*
X9006Y7125D01*
X9206D01*
X9306Y7225D01*
Y7625D01*
X9206Y7725D01*
X9506Y7125D02*
X9806D01*
X9906Y7225D01*
X9806Y7325D01*
X9606D01*
X9506Y7425D01*
X9606Y7525D01*
X9906D01*
X10506D02*
X10206D01*
X10106Y7425D01*
Y7225D01*
X10206Y7125D01*
X10506D01*
X25450Y7700D02*
Y7100D01*
X25850D01*
X26050Y7600D02*
X26150Y7700D01*
X26350D01*
X26450Y7600D01*
Y7500D01*
X26350Y7400D01*
X26250D01*
X26350D01*
X26450Y7300D01*
Y7200D01*
X26350Y7100D01*
X26150D01*
X26050Y7200D01*
X26650Y7600D02*
X26750Y7700D01*
X26950D01*
X27049Y7600D01*
Y7500D01*
X26950Y7400D01*
X26850D01*
X26950D01*
X27049Y7300D01*
Y7200D01*
X26950Y7100D01*
X26750D01*
X26650Y7200D01*
X27249Y7100D02*
X27449D01*
X27349D01*
Y7700D01*
X27249Y7600D01*
X7267Y17410D02*
Y16810D01*
X7667D01*
X8166D02*
Y17410D01*
X7867Y17110D01*
X8266D01*
X8466Y16810D02*
X8666D01*
X8566D01*
Y17410D01*
X8466Y17310D01*
X12313Y18910D02*
Y18310D01*
X12713D01*
X12913Y18810D02*
X13013Y18910D01*
X13213D01*
X13313Y18810D01*
Y18710D01*
X13213Y18610D01*
X13113D01*
X13213D01*
X13313Y18510D01*
Y18410D01*
X13213Y18310D01*
X13013D01*
X12913Y18410D01*
X13813Y18310D02*
Y18910D01*
X13513Y18610D01*
X13913D01*
X12320Y20860D02*
Y20260D01*
X12720D01*
X12920Y20760D02*
X13020Y20860D01*
X13220D01*
X13320Y20760D01*
Y20660D01*
X13220Y20560D01*
X13120D01*
X13220D01*
X13320Y20460D01*
Y20360D01*
X13220Y20260D01*
X13020D01*
X12920Y20360D01*
X13520Y20760D02*
X13620Y20860D01*
X13820D01*
X13919Y20760D01*
Y20660D01*
X13820Y20560D01*
X13720D01*
X13820D01*
X13919Y20460D01*
Y20360D01*
X13820Y20260D01*
X13620D01*
X13520Y20360D01*
X7317Y22760D02*
Y22160D01*
X7717D01*
X7917Y22660D02*
X8017Y22760D01*
X8216D01*
X8316Y22660D01*
Y22560D01*
X8216Y22460D01*
X8117D01*
X8216D01*
X8316Y22360D01*
Y22260D01*
X8216Y22160D01*
X8017D01*
X7917Y22260D01*
X8916Y22160D02*
X8516D01*
X8916Y22560D01*
Y22660D01*
X8816Y22760D01*
X8616D01*
X8516Y22660D01*
X7290Y15860D02*
Y15260D01*
X7690D01*
X7890Y15760D02*
X7990Y15860D01*
X8190D01*
X8290Y15760D01*
Y15660D01*
X8190Y15560D01*
X8090D01*
X8190D01*
X8290Y15460D01*
Y15360D01*
X8190Y15260D01*
X7990D01*
X7890Y15360D01*
X8490Y15260D02*
X8690D01*
X8590D01*
Y15860D01*
X8490Y15760D01*
X26380Y11070D02*
Y10470D01*
X26780D01*
X27380D02*
X26980D01*
X27380Y10870D01*
Y10970D01*
X27280Y11070D01*
X27080D01*
X26980Y10970D01*
X27580Y10470D02*
X27780D01*
X27680D01*
Y11070D01*
X27580Y10970D01*
X30942Y25400D02*
Y24800D01*
X31342D01*
X31542D02*
X31742D01*
X31642D01*
Y25400D01*
X31542Y25300D01*
X32341Y24800D02*
Y25400D01*
X32042Y25100D01*
X32441D01*
X26618Y12650D02*
Y12050D01*
X27018D01*
X27218D02*
X27418D01*
X27318D01*
Y12650D01*
X27218Y12550D01*
X27718D02*
X27817Y12650D01*
X28017D01*
X28117Y12550D01*
Y12450D01*
X28017Y12350D01*
X27917D01*
X28017D01*
X28117Y12250D01*
Y12150D01*
X28017Y12050D01*
X27817D01*
X27718Y12150D01*
X26490Y18750D02*
Y18150D01*
X26890D01*
X27090D02*
X27290D01*
X27190D01*
Y18750D01*
X27090Y18650D01*
X27990Y18150D02*
X27590D01*
X27990Y18550D01*
Y18650D01*
X27890Y18750D01*
X27690D01*
X27590Y18650D01*
X35515Y25865D02*
X35315D01*
X35415D01*
Y25365D01*
X35315Y25265D01*
X35215D01*
X35115Y25365D01*
X36115Y25265D02*
X35715D01*
X36115Y25665D01*
Y25765D01*
X36015Y25865D01*
X35815D01*
X35715Y25765D01*
X1915Y25865D02*
X1715D01*
X1815D01*
Y25365D01*
X1715Y25265D01*
X1615D01*
X1515Y25365D01*
X2115Y25265D02*
X2315D01*
X2215D01*
Y25865D01*
X2115Y25765D01*
X12432Y13720D02*
X12032D01*
Y13420D01*
X12232D01*
X12032D01*
Y13120D01*
X12632Y13720D02*
Y13120D01*
X13032D01*
X13232D02*
X13432D01*
X13332D01*
Y13720D01*
X13232Y13620D01*
X18203Y37015D02*
X18103Y37115D01*
X17903D01*
X17803Y37015D01*
Y36615D01*
X17903Y36515D01*
X18103D01*
X18203Y36615D01*
X18703Y37115D02*
X18503D01*
X18403Y37015D01*
Y36615D01*
X18503Y36515D01*
X18703D01*
X18803Y36615D01*
Y37015D01*
X18703Y37115D01*
X19003Y36515D02*
Y37115D01*
X19403Y36515D01*
Y37115D01*
X19603Y36515D02*
Y37115D01*
X19902D01*
X20002Y37015D01*
Y36815D01*
X19902Y36715D01*
X19603D01*
X19802D02*
X20002Y36515D01*
X20602Y37115D02*
X20202D01*
Y36515D01*
X20602D01*
X20202Y36815D02*
X20402D01*
X20802Y37115D02*
Y36715D01*
X21002Y36515D01*
X21202Y36715D01*
Y37115D01*
X21802Y37015D02*
X21702Y37115D01*
X21502D01*
X21402Y37015D01*
Y36915D01*
X21502Y36815D01*
X21702D01*
X21802Y36715D01*
Y36615D01*
X21702Y36515D01*
X21502D01*
X21402Y36615D01*
X22002Y36515D02*
Y37115D01*
X22202Y36915D01*
X22402Y37115D01*
Y36515D01*
X22602D02*
Y36915D01*
X22801Y37115D01*
X23001Y36915D01*
Y36515D01*
Y36815D01*
X22602D01*
X23201Y37015D02*
X23301Y37115D01*
X23501D01*
X23601Y37015D01*
Y36615D01*
X23501Y36515D01*
X23301D01*
X23201Y36615D01*
Y37015D01*
X23801D02*
X23901Y37115D01*
X24101D01*
X24201Y37015D01*
Y36615D01*
X24101Y36515D01*
X23901D01*
X23801Y36615D01*
Y37015D01*
X24401Y36515D02*
X24601D01*
X24501D01*
Y37115D01*
X24401Y37015D01*
X24901Y36815D02*
X25301D01*
X25900Y37015D02*
X25801Y37115D01*
X25601D01*
X25501Y37015D01*
Y36915D01*
X25601Y36815D01*
X25801D01*
X25900Y36715D01*
Y36615D01*
X25801Y36515D01*
X25601D01*
X25501Y36615D01*
X26100Y36515D02*
Y37115D01*
X26300Y36915D01*
X26500Y37115D01*
Y36515D01*
X26700Y37115D02*
Y36515D01*
X27000D01*
X27100Y36615D01*
Y37015D01*
X27000Y37115D01*
X26700D01*
X30750Y21140D02*
X30650Y21240D01*
X30450D01*
X30350Y21140D01*
Y20740D01*
X30450Y20640D01*
X30650D01*
X30750Y20740D01*
X31250Y20640D02*
Y21240D01*
X30950Y20940D01*
X31350D01*
X31550Y21140D02*
X31649Y21240D01*
X31849D01*
X31949Y21140D01*
Y21040D01*
X31849Y20940D01*
X31949Y20840D01*
Y20740D01*
X31849Y20640D01*
X31649D01*
X31550Y20740D01*
Y20840D01*
X31649Y20940D01*
X31550Y21040D01*
Y21140D01*
X31649Y20940D02*
X31849D01*
X32549Y21240D02*
X32149D01*
Y20940D01*
X32349Y21040D01*
X32449D01*
X32549Y20940D01*
Y20740D01*
X32449Y20640D01*
X32249D01*
X32149Y20740D01*
X26350Y20890D02*
X26250Y20990D01*
X26050D01*
X25950Y20890D01*
Y20490D01*
X26050Y20390D01*
X26250D01*
X26350Y20490D01*
X26850Y20390D02*
Y20990D01*
X26550Y20690D01*
X26950D01*
X27150Y20890D02*
X27250Y20990D01*
X27449D01*
X27549Y20890D01*
Y20790D01*
X27449Y20690D01*
X27549Y20590D01*
Y20490D01*
X27449Y20390D01*
X27250D01*
X27150Y20490D01*
Y20590D01*
X27250Y20690D01*
X27150Y20790D01*
Y20890D01*
X27250Y20690D02*
X27449D01*
X28049Y20390D02*
Y20990D01*
X27749Y20690D01*
X28149D01*
X26230Y29790D02*
X26130Y29890D01*
X25930D01*
X25830Y29790D01*
Y29390D01*
X25930Y29290D01*
X26130D01*
X26230Y29390D01*
X26730Y29290D02*
Y29890D01*
X26430Y29590D01*
X26830D01*
X27030Y29790D02*
X27129Y29890D01*
X27329D01*
X27429Y29790D01*
Y29690D01*
X27329Y29590D01*
X27429Y29490D01*
Y29390D01*
X27329Y29290D01*
X27129D01*
X27030Y29390D01*
Y29490D01*
X27129Y29590D01*
X27030Y29690D01*
Y29790D01*
X27129Y29590D02*
X27329D01*
X27629Y29790D02*
X27729Y29890D01*
X27929D01*
X28029Y29790D01*
Y29690D01*
X27929Y29590D01*
X27829D01*
X27929D01*
X28029Y29490D01*
Y29390D01*
X27929Y29290D01*
X27729D01*
X27629Y29390D01*
X30750Y12140D02*
X30650Y12240D01*
X30450D01*
X30350Y12140D01*
Y11740D01*
X30450Y11640D01*
X30650D01*
X30750Y11740D01*
X31250Y11640D02*
Y12240D01*
X30950Y11940D01*
X31350D01*
X31550Y12140D02*
X31650Y12240D01*
X31850D01*
X31949Y12140D01*
Y12040D01*
X31850Y11940D01*
X31949Y11840D01*
Y11740D01*
X31850Y11640D01*
X31650D01*
X31550Y11740D01*
Y11840D01*
X31650Y11940D01*
X31550Y12040D01*
Y12140D01*
X31650Y11940D02*
X31850D01*
X32149Y11640D02*
X32349D01*
X32249D01*
Y12240D01*
X32149Y12140D01*
X30724Y18890D02*
X30624Y18990D01*
X30424D01*
X30324Y18890D01*
Y18490D01*
X30424Y18390D01*
X30624D01*
X30724Y18490D01*
X31223Y18390D02*
Y18990D01*
X30924Y18690D01*
X31323D01*
X31823Y18390D02*
Y18990D01*
X31523Y18690D01*
X31923D01*
X32123Y18390D02*
X32323D01*
X32223D01*
Y18990D01*
X32123Y18890D01*
X7528Y26750D02*
X7428Y26850D01*
X7228D01*
X7128Y26750D01*
Y26350D01*
X7228Y26250D01*
X7428D01*
X7528Y26350D01*
X8028Y26250D02*
Y26850D01*
X7728Y26550D01*
X8128D01*
X8728Y26250D02*
X8328D01*
X8728Y26650D01*
Y26750D01*
X8628Y26850D01*
X8428D01*
X8328Y26750D01*
X8927D02*
X9027Y26850D01*
X9227D01*
X9327Y26750D01*
Y26350D01*
X9227Y26250D01*
X9027D01*
X8927Y26350D01*
Y26750D01*
X22380Y29840D02*
X22280Y29940D01*
X22080D01*
X21980Y29840D01*
Y29440D01*
X22080Y29340D01*
X22280D01*
X22380Y29440D01*
X22580Y29840D02*
X22680Y29940D01*
X22880D01*
X22980Y29840D01*
Y29740D01*
X22880Y29640D01*
X22780D01*
X22880D01*
X22980Y29540D01*
Y29440D01*
X22880Y29340D01*
X22680D01*
X22580Y29440D01*
X23579Y29940D02*
X23180D01*
Y29640D01*
X23379Y29740D01*
X23479D01*
X23579Y29640D01*
Y29440D01*
X23479Y29340D01*
X23280D01*
X23180Y29440D01*
X23779Y29340D02*
X23979D01*
X23879D01*
Y29940D01*
X23779Y29840D01*
X30750Y16640D02*
X30650Y16740D01*
X30450D01*
X30350Y16640D01*
Y16240D01*
X30450Y16140D01*
X30650D01*
X30750Y16240D01*
X30950Y16640D02*
X31050Y16740D01*
X31250D01*
X31350Y16640D01*
Y16540D01*
X31250Y16440D01*
X31150D01*
X31250D01*
X31350Y16340D01*
Y16240D01*
X31250Y16140D01*
X31050D01*
X30950Y16240D01*
X31849Y16140D02*
Y16740D01*
X31550Y16440D01*
X31949D01*
X32549Y16140D02*
X32149D01*
X32549Y16540D01*
Y16640D01*
X32449Y16740D01*
X32249D01*
X32149Y16640D01*
X12230Y15490D02*
X12130Y15590D01*
X11930D01*
X11830Y15490D01*
Y15090D01*
X11930Y14990D01*
X12130D01*
X12230Y15090D01*
X12430Y15490D02*
X12530Y15590D01*
X12730D01*
X12830Y15490D01*
Y15390D01*
X12730Y15290D01*
X12630D01*
X12730D01*
X12830Y15190D01*
Y15090D01*
X12730Y14990D01*
X12530D01*
X12430Y15090D01*
X13330Y14990D02*
Y15590D01*
X13030Y15290D01*
X13429D01*
X13629Y14990D02*
X13829D01*
X13729D01*
Y15590D01*
X13629Y15490D01*
X30720Y14390D02*
X30620Y14490D01*
X30420D01*
X30320Y14390D01*
Y13990D01*
X30420Y13890D01*
X30620D01*
X30720Y13990D01*
X30920Y14390D02*
X31020Y14490D01*
X31220D01*
X31320Y14390D01*
Y14290D01*
X31220Y14190D01*
X31120D01*
X31220D01*
X31320Y14090D01*
Y13990D01*
X31220Y13890D01*
X31020D01*
X30920Y13990D01*
X31520Y14390D02*
X31620Y14490D01*
X31820D01*
X31919Y14390D01*
Y14290D01*
X31820Y14190D01*
X31720D01*
X31820D01*
X31919Y14090D01*
Y13990D01*
X31820Y13890D01*
X31620D01*
X31520Y13990D01*
X32119Y13890D02*
X32319D01*
X32219D01*
Y14490D01*
X32119Y14390D01*
X12203Y24690D02*
X12103Y24790D01*
X11904D01*
X11804Y24690D01*
Y24290D01*
X11904Y24190D01*
X12103D01*
X12203Y24290D01*
X12803Y24190D02*
X12403D01*
X12803Y24590D01*
Y24690D01*
X12703Y24790D01*
X12503D01*
X12403Y24690D01*
X13003D02*
X13103Y24790D01*
X13303D01*
X13403Y24690D01*
Y24590D01*
X13303Y24490D01*
X13203D01*
X13303D01*
X13403Y24390D01*
Y24290D01*
X13303Y24190D01*
X13103D01*
X13003Y24290D01*
X13603Y24190D02*
X13803D01*
X13703D01*
Y24790D01*
X13603Y24690D01*
X26350Y23140D02*
X26250Y23240D01*
X26050D01*
X25950Y23140D01*
Y22740D01*
X26050Y22640D01*
X26250D01*
X26350Y22740D01*
X26950Y22640D02*
X26550D01*
X26950Y23040D01*
Y23140D01*
X26850Y23240D01*
X26650D01*
X26550Y23140D01*
X27549Y22640D02*
X27150D01*
X27549Y23040D01*
Y23140D01*
X27450Y23240D01*
X27250D01*
X27150Y23140D01*
X27749Y22640D02*
X27949D01*
X27849D01*
Y23240D01*
X27749Y23140D01*
X26320Y25340D02*
X26220Y25440D01*
X26020D01*
X25920Y25340D01*
Y24940D01*
X26020Y24840D01*
X26220D01*
X26320Y24940D01*
X26520Y24840D02*
X26720D01*
X26620D01*
Y25440D01*
X26520Y25340D01*
X27020D02*
X27120Y25440D01*
X27320D01*
X27420Y25340D01*
Y25240D01*
X27320Y25140D01*
X27220D01*
X27320D01*
X27420Y25040D01*
Y24940D01*
X27320Y24840D01*
X27120D01*
X27020Y24940D01*
X27620Y24840D02*
X27819D01*
X27720D01*
Y25440D01*
X27620Y25340D01*
X12203Y26740D02*
X12103Y26840D01*
X11904D01*
X11804Y26740D01*
Y26340D01*
X11904Y26240D01*
X12103D01*
X12203Y26340D01*
X12403D02*
X12503Y26240D01*
X12703D01*
X12803Y26340D01*
Y26740D01*
X12703Y26840D01*
X12503D01*
X12403Y26740D01*
Y26640D01*
X12503Y26540D01*
X12803D01*
X13003Y26240D02*
X13203D01*
X13103D01*
Y26840D01*
X13003Y26740D01*
X7200Y14040D02*
X7100Y14140D01*
X6900D01*
X6800Y14040D01*
Y13640D01*
X6900Y13540D01*
X7100D01*
X7200Y13640D01*
X7400Y14040D02*
X7500Y14140D01*
X7700D01*
X7800Y14040D01*
Y13940D01*
X7700Y13840D01*
X7800Y13740D01*
Y13640D01*
X7700Y13540D01*
X7500D01*
X7400Y13640D01*
Y13740D01*
X7500Y13840D01*
X7400Y13940D01*
Y14040D01*
X7500Y13840D02*
X7700D01*
X8000Y13540D02*
X8199D01*
X8099D01*
Y14140D01*
X8000Y14040D01*
X17230Y11000D02*
X17130Y11100D01*
X16930D01*
X16830Y11000D01*
Y10600D01*
X16930Y10500D01*
X17130D01*
X17230Y10600D01*
X17730Y10500D02*
Y11100D01*
X17430Y10800D01*
X17830D01*
X18030Y10500D02*
X18230D01*
X18130D01*
Y11100D01*
X18030Y11000D01*
X12235Y11045D02*
X12135Y11145D01*
X11935D01*
X11835Y11045D01*
Y10645D01*
X11935Y10545D01*
X12135D01*
X12235Y10645D01*
X12435Y11045D02*
X12535Y11145D01*
X12735D01*
X12835Y11045D01*
Y10945D01*
X12735Y10845D01*
X12635D01*
X12735D01*
X12835Y10745D01*
Y10645D01*
X12735Y10545D01*
X12535D01*
X12435Y10645D01*
X13434Y11145D02*
X13234Y11045D01*
X13035Y10845D01*
Y10645D01*
X13135Y10545D01*
X13334D01*
X13434Y10645D01*
Y10745D01*
X13334Y10845D01*
X13035D01*
X12720Y17260D02*
X12620Y17360D01*
X12420D01*
X12320Y17260D01*
Y16860D01*
X12420Y16760D01*
X12620D01*
X12720Y16860D01*
X12920Y17260D02*
X13020Y17360D01*
X13220D01*
X13320Y17260D01*
Y17160D01*
X13220Y17060D01*
X13120D01*
X13220D01*
X13320Y16960D01*
Y16860D01*
X13220Y16760D01*
X13020D01*
X12920Y16860D01*
X13919Y17360D02*
X13520D01*
Y17060D01*
X13720Y17160D01*
X13820D01*
X13919Y17060D01*
Y16860D01*
X13820Y16760D01*
X13620D01*
X13520Y16860D01*
X12713Y22610D02*
X12613Y22710D01*
X12413D01*
X12313Y22610D01*
Y22210D01*
X12413Y22110D01*
X12613D01*
X12713Y22210D01*
X12913Y22610D02*
X13013Y22710D01*
X13213D01*
X13313Y22610D01*
Y22510D01*
X13213Y22410D01*
X13113D01*
X13213D01*
X13313Y22310D01*
Y22210D01*
X13213Y22110D01*
X13013D01*
X12913Y22210D01*
X13813Y22110D02*
Y22710D01*
X13513Y22410D01*
X13913D01*
X7250Y21040D02*
X7150Y21140D01*
X6950D01*
X6850Y21040D01*
Y20640D01*
X6950Y20540D01*
X7150D01*
X7250Y20640D01*
X7450Y21040D02*
X7550Y21140D01*
X7750D01*
X7850Y21040D01*
Y20940D01*
X7750Y20840D01*
X7650D01*
X7750D01*
X7850Y20740D01*
Y20640D01*
X7750Y20540D01*
X7550D01*
X7450Y20640D01*
X8050Y21040D02*
X8149Y21140D01*
X8349D01*
X8449Y21040D01*
Y20940D01*
X8349Y20840D01*
X8249D01*
X8349D01*
X8449Y20740D01*
Y20640D01*
X8349Y20540D01*
X8149D01*
X8050Y20640D01*
X7667Y18860D02*
X7567Y18960D01*
X7367D01*
X7267Y18860D01*
Y18460D01*
X7367Y18360D01*
X7567D01*
X7667Y18460D01*
X7867Y18860D02*
X7967Y18960D01*
X8166D01*
X8266Y18860D01*
Y18760D01*
X8166Y18660D01*
X8067D01*
X8166D01*
X8266Y18560D01*
Y18460D01*
X8166Y18360D01*
X7967D01*
X7867Y18460D01*
X8866Y18360D02*
X8466D01*
X8866Y18760D01*
Y18860D01*
X8766Y18960D01*
X8566D01*
X8466Y18860D01*
X7305Y24745D02*
X7205Y24845D01*
X7005D01*
X6905Y24745D01*
Y24345D01*
X7005Y24245D01*
X7205D01*
X7305Y24345D01*
X7505Y24745D02*
X7605Y24845D01*
X7805D01*
X7905Y24745D01*
Y24645D01*
X7805Y24545D01*
X7705D01*
X7805D01*
X7905Y24445D01*
Y24345D01*
X7805Y24245D01*
X7605D01*
X7505Y24345D01*
X8105Y24245D02*
X8305D01*
X8205D01*
Y24845D01*
X8105Y24745D01*
X12530Y30000D02*
X12430Y30100D01*
X12230D01*
X12130Y30000D01*
Y29600D01*
X12230Y29500D01*
X12430D01*
X12530Y29600D01*
X13130Y29500D02*
X12730D01*
X13130Y29900D01*
Y30000D01*
X13030Y30100D01*
X12830D01*
X12730Y30000D01*
X13330Y29500D02*
X13530D01*
X13430D01*
Y30100D01*
X13330Y30000D01*
X26355Y27395D02*
X26255Y27495D01*
X26055D01*
X25955Y27395D01*
Y26995D01*
X26055Y26895D01*
X26255D01*
X26355Y26995D01*
X26555Y26895D02*
X26755D01*
X26655D01*
Y27495D01*
X26555Y27395D01*
X27455Y27495D02*
X27055D01*
Y27195D01*
X27255Y27295D01*
X27355D01*
X27455Y27195D01*
Y26995D01*
X27355Y26895D01*
X27155D01*
X27055Y26995D01*
X30700Y27640D02*
X30600Y27740D01*
X30400D01*
X30300Y27640D01*
Y27240D01*
X30400Y27140D01*
X30600D01*
X30700Y27240D01*
X30900Y27140D02*
X31100D01*
X31000D01*
Y27740D01*
X30900Y27640D01*
X31700Y27140D02*
Y27740D01*
X31400Y27440D01*
X31800D01*
X26355Y14595D02*
X26255Y14695D01*
X26055D01*
X25955Y14595D01*
Y14195D01*
X26055Y14095D01*
X26255D01*
X26355Y14195D01*
X26555Y14095D02*
X26755D01*
X26655D01*
Y14695D01*
X26555Y14595D01*
X27055D02*
X27155Y14695D01*
X27355D01*
X27455Y14595D01*
Y14495D01*
X27355Y14395D01*
X27255D01*
X27355D01*
X27455Y14295D01*
Y14195D01*
X27355Y14095D01*
X27155D01*
X27055Y14195D01*
X22382Y11000D02*
X22282Y11100D01*
X22082D01*
X21982Y11000D01*
Y10600D01*
X22082Y10500D01*
X22282D01*
X22382Y10600D01*
X22582Y10500D02*
X22782D01*
X22682D01*
Y11100D01*
X22582Y11000D01*
X23481Y10500D02*
X23082D01*
X23481Y10900D01*
Y11000D01*
X23382Y11100D01*
X23182D01*
X23082Y11000D01*
X26355Y17095D02*
X26255Y17195D01*
X26055D01*
X25955Y17095D01*
Y16695D01*
X26055Y16595D01*
X26255D01*
X26355Y16695D01*
X26555Y16595D02*
X26755D01*
X26655D01*
Y17195D01*
X26555Y17095D01*
X27055Y16595D02*
X27255D01*
X27155D01*
Y17195D01*
X27055Y17095D01*
X18079Y22118D02*
X18478Y21718D01*
X18079D02*
X18478Y22118D01*
X18079Y21918D02*
X18478D01*
X18279Y21718D02*
Y22118D01*
M02*
