G04*
G04 #@! TF.GenerationSoftware,Altium Limited,Altium Designer,18.1.9 (240)*
G04*
G04 Layer_Physical_Order=1*
G04 Layer_Color=255*
%FSLAX24Y24*%
%MOIN*%
G70*
G01*
G75*
%ADD15C,0.0100*%
G04:AMPARAMS|DCode=16|XSize=66.9mil|YSize=45.3mil|CornerRadius=0mil|HoleSize=0mil|Usage=FLASHONLY|Rotation=225.000|XOffset=0mil|YOffset=0mil|HoleType=Round|Shape=Rectangle|*
%AMROTATEDRECTD16*
4,1,4,0.0077,0.0397,0.0397,0.0077,-0.0077,-0.0397,-0.0397,-0.0077,0.0077,0.0397,0.0*
%
%ADD16ROTATEDRECTD16*%

G04:AMPARAMS|DCode=17|XSize=157.5mil|YSize=275.6mil|CornerRadius=0mil|HoleSize=0mil|Usage=FLASHONLY|Rotation=45.000|XOffset=0mil|YOffset=0mil|HoleType=Round|Shape=Rectangle|*
%AMROTATEDRECTD17*
4,1,4,0.0418,-0.1531,-0.1531,0.0418,-0.0418,0.1531,0.1531,-0.0418,0.0418,-0.1531,0.0*
%
%ADD17ROTATEDRECTD17*%

G04:AMPARAMS|DCode=18|XSize=66.9mil|YSize=45.3mil|CornerRadius=0mil|HoleSize=0mil|Usage=FLASHONLY|Rotation=135.000|XOffset=0mil|YOffset=0mil|HoleType=Round|Shape=Rectangle|*
%AMROTATEDRECTD18*
4,1,4,0.0397,-0.0077,0.0077,-0.0397,-0.0397,0.0077,-0.0077,0.0397,0.0397,-0.0077,0.0*
%
%ADD18ROTATEDRECTD18*%

%ADD19R,0.0350X0.0402*%
%ADD20R,0.0453X0.0669*%
%ADD21R,0.0433X0.0571*%
%ADD22O,0.0138X0.0531*%
%ADD23R,0.0571X0.0551*%
%ADD24O,0.0094X0.0236*%
%ADD25O,0.0236X0.0094*%
%ADD43R,0.0961X0.0961*%
%ADD44C,0.0807*%
%ADD45C,0.0512*%
%ADD46C,0.0591*%
%ADD47R,0.0591X0.0591*%
%ADD48R,0.0591X0.0591*%
%ADD49C,0.0500*%
D15*
X19268Y34650D02*
X20400D01*
X22000Y33350D02*
X22920Y34270D01*
X24200D01*
X24422Y34048D01*
X18221Y35697D02*
X20315D01*
X19300Y36375D02*
X19375D01*
X19450Y36450D01*
X23450D01*
X19270Y30500D02*
Y32500D01*
X23450Y36450D02*
X24166Y35734D01*
X18221Y35697D02*
Y36880D01*
X8320Y23610D02*
X8440D01*
X18221Y36880D02*
X27560Y36880D01*
X18221Y33603D02*
X20315D01*
X20180Y18290D02*
X20192D01*
X23350Y15940D02*
X24970Y17560D01*
X20990Y20783D02*
Y21410D01*
X33100Y27960D02*
Y28700D01*
Y27780D02*
Y27960D01*
X30500Y19470D02*
X30530Y19500D01*
X30055Y19025D02*
X30500Y19470D01*
X12352Y28500D02*
Y28800D01*
Y27329D02*
Y28500D01*
X12226Y21900D02*
Y22400D01*
X6510Y13670D02*
X6980Y13200D01*
X6090Y14090D02*
X6510Y13670D01*
X18920Y25800D02*
X26130D01*
X17798Y12497D02*
Y13082D01*
Y9800D02*
Y12497D01*
X17392Y20300D02*
X17500Y20192D01*
X8080Y18016D02*
X10886D01*
X7924D02*
X8080D01*
X15890Y7090D02*
Y23052D01*
X30270Y21900D02*
X30530Y21640D01*
X22370Y20800D02*
X22550Y20980D01*
X14890Y16850D02*
X15270Y17230D01*
X13250Y15210D02*
X14890Y16850D01*
X18200Y21100D02*
X18617D01*
X27370Y16200D02*
Y16590D01*
Y12640D02*
Y13000D01*
X30480Y26290D02*
X30800D01*
X21657Y18140D02*
X21673Y18125D01*
X21180Y18617D02*
X21657Y18140D01*
X20920Y2020D02*
X20947Y14170D01*
Y14170D02*
X20950Y15480D01*
X20947Y14170D02*
Y14170D01*
X2450Y24030D02*
Y25430D01*
X18290Y19970D02*
Y19995D01*
X17430Y19405D02*
X18361D01*
X16970Y18945D02*
X17430Y19405D01*
X16970Y15310D02*
Y18945D01*
Y15310D02*
X17740Y14540D01*
X18191Y19011D02*
X18361D01*
X17460Y18280D02*
X18191Y19011D01*
X17460Y15450D02*
Y18280D01*
Y15450D02*
X18110Y14800D01*
Y14280D02*
Y14800D01*
X18000Y14170D02*
X18110Y14280D01*
X17370Y14170D02*
X18000D01*
X16600Y14940D02*
X17370Y14170D01*
X16600Y14940D02*
Y18600D01*
X9650Y26490D02*
Y32250D01*
X29450Y29600D02*
Y32100D01*
Y29600D02*
X31370Y27680D01*
Y25940D02*
Y27680D01*
Y25940D02*
X36050D01*
X36970Y25020D01*
Y21200D02*
Y25020D01*
X36720Y20950D02*
X36970Y21200D01*
X35400Y20950D02*
X36720D01*
X35130Y20680D02*
X35400Y20950D01*
X35130Y20140D02*
Y20680D01*
Y20140D02*
X35400Y19870D01*
X35960D01*
X35970Y19860D01*
Y15030D02*
Y19860D01*
Y15030D02*
X36550Y14450D01*
X18325Y18617D02*
X18361D01*
X17800Y18092D02*
X18325Y18617D01*
X17800Y15921D02*
Y18092D01*
Y15921D02*
X20010Y13711D01*
Y13440D02*
Y13711D01*
X2950Y18450D02*
X3730Y17670D01*
Y8042D02*
Y17670D01*
Y8042D02*
X11043Y729D01*
X16629D01*
X17250Y1350D01*
X2530Y11870D02*
Y20030D01*
X2950Y20450D01*
X20192Y18290D02*
Y18361D01*
X20180Y17200D02*
Y18290D01*
Y17200D02*
X20400Y16980D01*
X20920D01*
X21240Y17300D01*
X21650D01*
X21750Y17400D01*
X22250Y1350D02*
X23830Y2930D01*
X29500D01*
X37135Y10565D01*
Y19635D01*
X36740Y20030D02*
X37135Y19635D01*
X36135Y20030D02*
X36740D01*
X35550Y20450D02*
X36135Y20030D01*
X21860Y3970D02*
Y11180D01*
X22270Y11590D01*
Y16560D01*
X23000Y17290D01*
Y18090D01*
X22625Y18465D02*
X23000Y18090D01*
X21600Y18465D02*
X22625D01*
X21251Y18814D02*
X21600Y18465D01*
X21039Y18814D02*
X21251D01*
X22700Y800D02*
X23250Y1350D01*
X22030Y800D02*
X22700D01*
X21830Y1000D02*
X22030Y800D01*
X21830Y1000D02*
Y3100D01*
X22610Y3880D02*
Y15200D01*
X24970Y17560D02*
Y21430D01*
X25460Y23220D02*
X25610D01*
X24280Y22040D02*
X25460Y23220D01*
X24280Y19608D02*
Y22040D01*
X23506Y18835D02*
X24280Y19608D01*
X22065Y18835D02*
X23506D01*
X21692Y19208D02*
X22065Y18835D01*
X21039Y19208D02*
X21692D01*
X22070Y19405D02*
X22270Y19205D01*
X21039Y19405D02*
X22070D01*
X21039Y19602D02*
X23035D01*
X23910Y20477D01*
Y21080D01*
X21728Y19798D02*
X22000Y20070D01*
X21039Y19798D02*
X21728D01*
X20990Y20783D02*
X21039D01*
X20990Y21410D02*
X21160Y21580D01*
X20783Y21039D02*
Y21743D01*
X21000Y21960D01*
X21400D01*
X21830Y21530D01*
Y21250D02*
Y21530D01*
X17050Y21850D02*
Y23256D01*
X18170Y24376D01*
X20800D01*
X20960Y24216D01*
Y22374D02*
Y24216D01*
X20586Y22000D02*
X20960Y22374D01*
X20586Y21039D02*
Y22000D01*
X20389Y21039D02*
Y22114D01*
X20790Y22515D01*
Y24000D01*
X20584Y24206D02*
X20790Y24000D01*
X19825Y24206D02*
X20584D01*
X18850Y23231D02*
X19825Y24206D01*
X20192Y21039D02*
Y22232D01*
X20420Y22460D01*
Y23636D01*
X19995Y21039D02*
Y22850D01*
X17050Y9800D02*
Y10680D01*
X6510Y13670D02*
Y24030D01*
X7350Y24870D01*
Y25550D01*
X24422Y35152D02*
Y35426D01*
X24200Y34930D02*
X24422Y35152D01*
X21083Y34930D02*
X24200D01*
X20315Y35697D02*
X21083Y34930D01*
X30530Y14980D02*
Y15400D01*
Y14300D02*
Y14980D01*
X30500Y13150D02*
X30530Y14300D01*
Y14980D02*
X31475Y14035D01*
X26130Y13350D02*
X26630Y13850D01*
X29800D01*
X30500Y13150D01*
X27560Y36880D02*
X34470Y29970D01*
Y27530D02*
Y29970D01*
X34340Y27400D02*
X34470Y27530D01*
X33660Y27400D02*
X34340D01*
X33100Y27960D02*
X33660Y27400D01*
X26130Y15850D02*
Y16920D01*
X25780Y17270D02*
X26130Y16920D01*
X25780Y17270D02*
Y22450D01*
X25980Y22650D01*
Y23410D01*
X25708Y23682D02*
X25980Y23410D01*
X25708Y23682D02*
Y24300D01*
X25463Y24546D02*
X25708Y24300D01*
X18018Y24546D02*
X25463D01*
X16680Y23208D02*
X18018Y24546D01*
X16680Y21600D02*
Y23208D01*
Y21600D02*
X16800Y21480D01*
X17503D01*
X18200Y20783D01*
X18361D01*
X17971Y20389D02*
X18361D01*
X17450Y20910D02*
X17971Y20389D01*
X16707Y20910D02*
X17450D01*
X16060Y20263D02*
X16707Y20910D01*
X16060Y14820D02*
Y20263D01*
Y14820D02*
X17798Y13082D01*
X16275Y14020D02*
X17798Y12497D01*
X7199Y14231D02*
X7410Y14020D01*
X7199Y14231D02*
Y14750D01*
X7919Y19340D02*
Y21650D01*
Y19340D02*
X8430Y18910D01*
Y18366D02*
Y18910D01*
X8080Y18016D02*
X8430Y18366D01*
X7924Y17850D02*
X8080Y18016D01*
X7924Y17850D02*
Y18016D01*
X10886D02*
X11020Y18150D01*
X17432Y20340D02*
X17480D01*
X17392Y20300D02*
X17432Y20340D01*
X17500Y20192D02*
X18361D01*
X16428Y19798D02*
X18361D01*
X16230Y19600D02*
X16428Y19798D01*
X16230Y14950D02*
Y19600D01*
Y14950D02*
X18140Y13040D01*
Y9340D02*
Y13040D01*
X15890Y7090D02*
X18140Y9340D01*
X15890Y6990D02*
Y7090D01*
X8635Y5680D02*
X14580D01*
X8220Y6094D02*
X8635Y5680D01*
X8220Y6094D02*
Y12800D01*
X14580Y5680D02*
X15890Y6990D01*
Y23052D02*
X18260Y25422D01*
Y28750D01*
X13224Y25096D02*
Y25500D01*
Y25096D02*
X14190Y24130D01*
Y20060D02*
Y24130D01*
X16600Y19370D02*
X16832Y19602D01*
X18361D01*
X27370Y21900D02*
X30270D01*
X31770Y19900D02*
Y20400D01*
X30530Y21640D02*
X31770Y20400D01*
X30530Y21640D02*
Y22150D01*
X19405Y21039D02*
Y21682D01*
X19073Y21787D02*
X19405Y21682D01*
X18830Y22030D02*
X19073Y21787D01*
X15270Y17230D02*
Y21790D01*
X27370Y19650D02*
Y20620D01*
X22550Y20980D02*
X23140D01*
X27370Y20620D02*
Y21900D01*
X18617Y17957D02*
Y18361D01*
X18340Y17680D02*
X18617Y17957D01*
X18340Y16710D02*
Y17680D01*
X18170Y16540D02*
X18340Y16710D01*
X13250Y14250D02*
Y15210D01*
X20380Y17550D02*
X20550Y17380D01*
X20380Y17550D02*
Y18111D01*
X20389Y18361D01*
X8098Y25178D02*
Y25550D01*
X7908Y25178D02*
X8098D01*
X6680Y23950D02*
X7908Y25178D01*
X6680Y13800D02*
Y23950D01*
Y13800D02*
X7000Y13480D01*
X8400D01*
X8730Y13150D01*
Y6000D02*
Y13150D01*
Y6000D02*
X8830Y5900D01*
X10800D01*
X10900Y6000D01*
Y6300D01*
X19208Y21039D02*
Y21432D01*
X19023Y21617D02*
X19208Y21432D01*
X18600Y21617D02*
X19023D01*
X18460Y21757D02*
X18600Y21617D01*
X18460Y21757D02*
Y23400D01*
X18330Y23530D02*
X18460Y23400D01*
X17800Y23530D02*
X18330D01*
X17545Y23275D02*
X17800Y23530D01*
X17545Y21755D02*
Y23275D01*
Y21755D02*
X18200Y21100D01*
X18617Y21039D02*
Y21100D01*
X19011Y21039D02*
Y21327D01*
X18891Y21447D02*
X19011Y21327D01*
X18375Y21447D02*
X18891D01*
X18290Y21532D02*
X18375Y21447D01*
X18290Y21532D02*
Y22940D01*
X18070Y23160D02*
X18290Y22940D01*
X5520Y9350D02*
Y22440D01*
Y9350D02*
X6780Y8090D01*
Y5240D02*
Y8090D01*
Y5240D02*
X8150Y3870D01*
X10800D01*
X10900Y3970D01*
Y4300D01*
X18814Y21039D02*
Y21163D01*
X18700Y21277D02*
X18814Y21163D01*
X18264Y21277D02*
X18700D01*
X17920Y21620D02*
X18264Y21277D01*
X17920Y21620D02*
Y22020D01*
X12600Y19150D02*
Y20326D01*
X11840Y18390D02*
X12600Y19150D01*
X11840Y17380D02*
Y18390D01*
X9223Y14763D02*
X11840Y17380D01*
X9223Y6300D02*
Y14763D01*
X27370Y13000D02*
Y13350D01*
X27260Y12890D02*
X27370Y13000D01*
X25450Y12890D02*
X27260D01*
X25340Y13000D02*
X25450Y12890D01*
X25340Y13000D02*
Y22500D01*
X30831Y23719D02*
X31180Y23370D01*
X30831Y23719D02*
Y24350D01*
X30480Y26290D02*
Y26400D01*
X30800Y26290D02*
X30996Y26094D01*
X31469Y25527D01*
Y24350D02*
Y25527D01*
X11990Y19750D02*
X12226D01*
X11640Y19400D02*
X11990Y19750D01*
X11640Y18220D02*
Y19400D01*
X9720Y16300D02*
X11640Y18220D01*
X7869Y16300D02*
X9720D01*
X12226Y17800D02*
Y18400D01*
X12974Y19148D01*
Y19750D01*
X24166Y35426D02*
Y35734D01*
X17620Y28850D02*
X19270Y30500D01*
X17620Y25630D02*
Y28850D01*
X15670Y23680D02*
X17620Y25630D01*
X15670Y15300D02*
Y23680D01*
X13200Y12830D02*
X15670Y15300D01*
X12550Y12830D02*
X13200D01*
X12550Y12170D02*
Y12830D01*
Y12170D02*
X12700Y12020D01*
X12830D01*
X13250Y11600D01*
Y9800D02*
Y11600D01*
X26010Y28550D02*
Y29220D01*
X12850Y12500D02*
X13520D01*
X15470Y14450D01*
X21039Y20586D02*
X21166D01*
X21407Y20827D01*
X21947D01*
X22200Y21080D01*
Y21420D01*
X21760Y21860D02*
X22200Y21420D01*
X21760Y21860D02*
Y22320D01*
X23290Y23850D01*
X25310D01*
X20950Y15480D02*
X21930Y16460D01*
Y16960D01*
X22125Y17155D01*
Y17644D01*
X22000Y17770D02*
X22125Y17644D01*
X21655Y17955D02*
X22000Y17770D01*
X21273Y17955D02*
X21655D01*
X20937Y18290D02*
X21273Y17955D01*
X20783Y18361D02*
X20937Y18290D01*
X20250Y1350D02*
X20920Y2020D01*
Y14170D02*
X20947D01*
X3320Y13660D02*
X3370Y13710D01*
Y15030D01*
X2950Y15450D02*
X3370Y15030D01*
X1950Y19850D02*
X2450Y20350D01*
X24422Y33674D02*
Y34048D01*
X33977Y27823D02*
Y29600D01*
X32354Y31223D02*
X33977Y29600D01*
X30327Y31223D02*
X32354D01*
X28066Y4316D02*
X30646D01*
X32250Y5920D01*
Y20510D01*
X21620Y20440D02*
X22940D01*
X21372Y20192D02*
X21620Y20440D01*
X21039Y20192D02*
X21372D01*
X21039Y19995D02*
X21385D01*
X21830Y20440D01*
X23400D01*
X23510Y20550D01*
Y22010D01*
X2950Y22450D02*
X4900Y24400D01*
X27250Y28550D02*
Y30378D01*
X24678Y32950D02*
X27250Y30378D01*
X24678Y32950D02*
Y33674D01*
X30850Y7100D02*
Y8890D01*
X31770Y9810D01*
Y10900D01*
X27200Y12470D02*
X27370Y12640D01*
X27200Y11600D02*
Y12470D01*
X13224Y23162D02*
Y23450D01*
Y23162D02*
X13560Y22825D01*
Y19180D02*
Y22825D01*
Y19180D02*
X14890Y17850D01*
X20586Y18084D02*
X20750Y17920D01*
X20586Y18084D02*
Y18361D01*
X12212Y12500D02*
Y12800D01*
X12542Y13130D01*
X12800D01*
X13250Y13580D01*
Y14250D01*
X30500Y17650D02*
Y19470D01*
X30530Y19500D02*
Y19900D01*
X30500Y16560D02*
Y17650D01*
Y16560D02*
X30530Y16530D01*
Y15400D02*
Y16530D01*
X30500Y12060D02*
Y13150D01*
Y12060D02*
X30530Y12030D01*
Y10900D02*
Y12030D01*
X18960Y13970D02*
Y14348D01*
X17630Y15678D02*
X18960Y14348D01*
X17630Y15678D02*
Y18210D01*
X18234Y18814D01*
X18361D01*
X19080Y17220D02*
X19208Y17348D01*
Y18361D01*
X17439Y18800D02*
X17639D01*
X18047Y19208D01*
X18361D01*
X21039Y20389D02*
X21221D01*
X21442Y20610D01*
X22180D01*
X22370Y20800D01*
Y22120D01*
X19073Y21787D02*
X19300D01*
X19405Y21682D01*
X20288Y16810D02*
X21320D01*
X19995Y17102D02*
X20288Y16810D01*
X19995Y17102D02*
Y18361D01*
X17050Y8980D02*
Y9800D01*
X18540Y16160D02*
X18830Y15870D01*
X18540Y16160D02*
Y17560D01*
X18814Y17834D01*
Y18361D01*
X19011Y17691D02*
Y18361D01*
X18710Y17390D02*
X19011Y17691D01*
X18710Y16930D02*
Y17390D01*
Y16930D02*
X19400Y16240D01*
Y15350D02*
Y16240D01*
X33740Y17260D02*
X35550Y15450D01*
X19405Y17590D02*
Y18361D01*
Y17590D02*
X19450Y17545D01*
Y16528D02*
Y17545D01*
Y16528D02*
X19905Y16073D01*
X17250Y1350D02*
X20380Y4480D01*
Y16252D01*
X20275Y16357D02*
X20380Y16252D01*
X20143Y16357D02*
X20275D01*
X19626Y16874D02*
X20143Y16357D01*
X19626Y16874D02*
Y18064D01*
X19602Y18088D02*
X19626Y18064D01*
X19602Y18088D02*
Y18361D01*
X18250Y1350D02*
X20550Y3650D01*
Y16497D01*
X20482Y16565D02*
X20550Y16497D01*
X20223Y16565D02*
X20482D01*
X19798Y16990D02*
X20223Y16565D01*
X19798Y16990D02*
Y18361D01*
X6090Y14090D02*
Y17450D01*
X6980Y12800D02*
Y13200D01*
X18290Y19995D02*
X18361D01*
X17000Y19970D02*
X18290D01*
X16780Y20190D02*
X17000Y19970D01*
X7560Y18840D02*
X7940Y18460D01*
X7560Y18840D02*
Y21650D01*
X7281D02*
X7560D01*
X18156Y20586D02*
X18361D01*
X17632Y21110D02*
X18156Y20586D01*
X16710Y21110D02*
X17632D01*
X16510Y21310D02*
X16710Y21110D01*
X16510Y21310D02*
Y23390D01*
X18920Y25800D01*
X26130D02*
Y26150D01*
X19602Y21039D02*
Y22078D01*
X19200Y22480D02*
X19602Y22078D01*
X2450Y20350D02*
Y24030D01*
X1950Y19450D02*
Y19850D01*
X13100Y28800D02*
Y29660D01*
X26230Y27000D02*
X27170D01*
X27370Y26800D01*
Y26150D02*
Y26800D01*
X21039Y19011D02*
X21584D01*
X21930Y18665D01*
X22800D01*
X23350Y18115D01*
Y15940D02*
Y18115D01*
X22610Y15200D02*
X23350Y15940D01*
X21830Y3100D02*
X22610Y3880D01*
X26130Y19300D02*
Y19650D01*
Y19300D02*
X26405Y19025D01*
X30055D01*
X27200Y9850D02*
X30640D01*
X30880Y10090D01*
Y13200D01*
X31320Y13640D01*
X31800D01*
X32050Y13890D01*
Y14110D01*
X31220Y14940D02*
X32050Y14110D01*
X31220Y14940D02*
Y20180D01*
X30870Y20530D02*
X31220Y20180D01*
X29055Y20530D02*
X30870D01*
X27720Y19195D02*
X29055Y20530D01*
X27020Y19195D02*
X27720D01*
X26990Y19225D02*
X27020Y19195D01*
X26990Y19225D02*
Y25260D01*
X27370Y25640D01*
Y26150D01*
X7176Y17290D02*
Y17850D01*
X6860Y16974D02*
X7176Y17290D01*
X6860Y13990D02*
Y16974D01*
Y13990D02*
X7200Y13650D01*
X7610D01*
X8360Y14400D01*
Y15420D01*
X7869Y15911D02*
X8360Y15420D01*
X7869Y15911D02*
Y16300D01*
X12352Y28500D02*
X12462Y28390D01*
X13550D01*
X18221Y33061D01*
Y33603D01*
X1530Y17870D02*
X1950Y17450D01*
X1530Y17870D02*
Y22970D01*
X19420Y22831D02*
Y23250D01*
Y22831D02*
X19798Y22453D01*
Y21039D02*
Y22453D01*
X24934Y35040D02*
Y35426D01*
Y35040D02*
X25410D01*
X27950Y32500D01*
Y28930D02*
Y32500D01*
Y28930D02*
X30480Y26400D01*
X26100Y23590D02*
Y24100D01*
Y23590D02*
X26150Y23540D01*
Y22500D02*
Y23540D01*
X26130Y22480D02*
X26150Y22500D01*
X26130Y21900D02*
Y22480D01*
X14250Y1350D02*
Y4400D01*
X13800Y4850D02*
X14250Y4400D01*
X9473Y4850D02*
X13800D01*
X9223Y4600D02*
X9473Y4850D01*
X9223Y4300D02*
Y4600D01*
X32950Y17050D02*
X35550Y14450D01*
X32950Y17050D02*
Y20520D01*
X31770Y21700D02*
X32950Y20520D01*
X31770Y21700D02*
Y22150D01*
X21250Y1350D02*
Y13150D01*
X22100Y14000D01*
Y16664D01*
X22295Y16860D01*
Y17829D01*
X22000Y18125D02*
X22295Y17829D01*
X21673Y18125D02*
X22000D01*
X21039Y18617D02*
X21180D01*
X22194Y18140D02*
X22408Y17926D01*
X21657Y18140D02*
X22194D01*
X27370Y15850D02*
Y16200D01*
X26950Y16620D02*
X27370Y16200D01*
X26850Y16620D02*
X26950D01*
X22440Y16010D02*
X22790Y16360D01*
X22440Y11368D02*
Y16010D01*
X22202Y11130D02*
X22440Y11368D01*
X22202Y9800D02*
Y11130D01*
X6980Y5869D02*
Y12800D01*
Y5869D02*
X8549Y4300D01*
X9223D01*
X23400Y26490D02*
Y28600D01*
X12010Y9800D02*
Y10250D01*
X11910Y10350D02*
X12010Y10250D01*
X11910Y10350D02*
Y13310D01*
X12630Y14030D01*
Y14840D01*
X13220Y15430D01*
Y16250D01*
X8320Y23500D02*
Y23610D01*
X8440D02*
Y26040D01*
X8000Y26480D02*
X8440Y26040D01*
X7830Y26480D02*
X8000D01*
X7350Y26000D02*
X7830Y26480D01*
X7350Y25550D02*
Y26000D01*
X31770Y18031D02*
Y19900D01*
X31740Y18001D02*
X31770Y18031D01*
X31740Y17650D02*
Y18001D01*
X30530Y22150D02*
Y25190D01*
X28000Y27720D02*
X30530Y25190D01*
X24800Y27720D02*
X28000D01*
X24166Y28354D02*
X24800Y27720D01*
X24166Y28354D02*
Y33674D01*
X12226Y21600D02*
Y21900D01*
X12356Y22030D01*
X13320D01*
Y19090D02*
Y22030D01*
X12630Y18400D02*
X13320Y19090D01*
X12630Y17370D02*
Y18400D01*
X11980Y16720D02*
X12630Y17370D01*
X11980Y16250D02*
Y16720D01*
X8773Y29600D02*
Y31373D01*
X8100Y28927D02*
X8773Y29600D01*
X6127Y28927D02*
X8100D01*
X16474Y28750D02*
X17040D01*
X13224Y25500D02*
X16474Y28750D01*
X5250Y27650D02*
X7350Y25550D01*
X5250Y27650D02*
Y28050D01*
X31720Y26400D02*
X33100Y27780D01*
X22160Y28600D02*
Y31758D01*
X20315Y33603D02*
X22160Y31758D01*
X31770Y22150D02*
X33030D01*
X33830Y22950D01*
X36050D01*
X36550Y23450D01*
X12212Y11420D02*
Y12500D01*
Y11420D02*
X12360Y11272D01*
Y7250D02*
Y11272D01*
X11410Y6300D02*
X12360Y7250D01*
X10900Y6300D02*
X11410D01*
X28160Y17650D02*
X30500D01*
X27700Y18110D02*
X28160Y17650D01*
X26491Y18110D02*
X27700D01*
X26381Y18000D02*
X26491Y18110D01*
X26381Y17700D02*
Y18000D01*
X11980Y15260D02*
Y16250D01*
Y15260D02*
X12010Y15230D01*
Y14250D02*
Y15230D01*
X8320Y21670D02*
Y23500D01*
X8270Y21620D02*
X8320Y21670D01*
X8270Y19800D02*
Y21620D01*
X10170Y23450D02*
X11983D01*
X10120Y23500D02*
X10170Y23450D01*
X8320Y23500D02*
X10120D01*
X11983Y22643D02*
Y23450D01*
Y22643D02*
X12226Y22400D01*
X11983Y26960D02*
X12352Y27329D01*
X11983Y25500D02*
Y26960D01*
Y23450D02*
Y25500D01*
X24678Y34676D02*
Y35426D01*
Y34676D02*
X24934Y34420D01*
Y33674D02*
Y34420D01*
X24422Y35426D02*
X24678D01*
X18221Y33603D02*
Y35697D01*
X26130Y19650D02*
Y21900D01*
X7231Y15532D02*
Y16300D01*
X7199Y15500D02*
X7231Y15532D01*
X7199Y14750D02*
Y15500D01*
X7924Y17264D02*
Y17850D01*
X7530Y16870D02*
X7924Y17264D01*
X7530Y15727D02*
Y16870D01*
Y15727D02*
X7947Y15310D01*
Y14750D02*
Y15310D01*
X27340Y23010D02*
Y24100D01*
Y23010D02*
X27370Y22980D01*
Y21900D02*
Y22980D01*
X31740Y16540D02*
Y17650D01*
Y16540D02*
X31770Y16510D01*
Y15400D02*
Y16510D01*
X27019Y16941D02*
Y17700D01*
Y16941D02*
X27370Y16590D01*
X24780Y9850D02*
X26562D01*
X24730Y9800D02*
X24780Y9850D01*
X22950Y9800D02*
X24730D01*
X26452Y10770D02*
Y11600D01*
Y10770D02*
X26562Y10660D01*
Y9850D02*
Y10660D01*
X7030Y18896D02*
Y19800D01*
Y18896D02*
X7176Y18750D01*
Y17850D02*
Y18750D01*
X12974Y19750D02*
Y21600D01*
Y17146D02*
Y17800D01*
Y17146D02*
X13220Y16900D01*
Y16250D02*
Y16900D01*
X31740Y12040D02*
Y13150D01*
Y12040D02*
X31770Y12010D01*
Y10900D02*
Y12010D01*
X7080Y22671D02*
Y23500D01*
Y22671D02*
X7281Y22470D01*
Y21650D02*
Y22470D01*
D16*
X33100Y28700D02*
D03*
X33977Y27823D02*
D03*
X29450Y32100D02*
D03*
X30327Y31223D02*
D03*
D17*
X28066Y4316D02*
D03*
X30850Y7100D02*
D03*
D18*
X9650Y32250D02*
D03*
X8773Y31373D02*
D03*
X5250Y28050D02*
D03*
X6127Y28927D02*
D03*
D19*
X27019Y17700D02*
D03*
X26381D02*
D03*
X27200Y9850D02*
D03*
X26562D02*
D03*
X30831Y24350D02*
D03*
X31469D02*
D03*
X12850Y12500D02*
D03*
X12212D02*
D03*
X7231Y16300D02*
D03*
X7869D02*
D03*
X7919Y21650D02*
D03*
X7281D02*
D03*
D20*
X13220Y16250D02*
D03*
X11980D02*
D03*
X30530Y22150D02*
D03*
X31770D02*
D03*
X30530Y19900D02*
D03*
X31770D02*
D03*
X26130Y19650D02*
D03*
X27370D02*
D03*
X26010Y28550D02*
D03*
X27250D02*
D03*
X30530Y10900D02*
D03*
X31770D02*
D03*
X30530Y15400D02*
D03*
X31770D02*
D03*
X12010Y14250D02*
D03*
X13250D02*
D03*
X26130Y21900D02*
D03*
X27370D02*
D03*
X6980Y12800D02*
D03*
X8220D02*
D03*
X13250Y9800D02*
D03*
X12010D02*
D03*
X7030Y19800D02*
D03*
X8270D02*
D03*
X8320Y23500D02*
D03*
X7080D02*
D03*
X27370Y26150D02*
D03*
X26130D02*
D03*
X30480Y26400D02*
D03*
X31720D02*
D03*
X27370Y13350D02*
D03*
X26130D02*
D03*
X27370Y15850D02*
D03*
X26130D02*
D03*
X11983Y25500D02*
D03*
X13224D02*
D03*
X26100Y24100D02*
D03*
X27340D02*
D03*
X11983Y23450D02*
D03*
X13224D02*
D03*
X30500Y13150D02*
D03*
X31740D02*
D03*
X22160Y28600D02*
D03*
X23400D02*
D03*
X30500Y17650D02*
D03*
X31740D02*
D03*
D21*
X12974Y17800D02*
D03*
X12226D02*
D03*
X12974Y19750D02*
D03*
X12226D02*
D03*
X12974Y21600D02*
D03*
X12226D02*
D03*
X13100Y28800D02*
D03*
X12352D02*
D03*
X22950Y9800D02*
D03*
X22202D02*
D03*
X27200Y11600D02*
D03*
X26452D02*
D03*
X7199Y14750D02*
D03*
X7947D02*
D03*
X17798Y9800D02*
D03*
X17050D02*
D03*
X7176Y17850D02*
D03*
X7924D02*
D03*
X7350Y25550D02*
D03*
X8098D02*
D03*
D22*
X24166Y33674D02*
D03*
X24422D02*
D03*
X24678D02*
D03*
X24934D02*
D03*
X24166Y35426D02*
D03*
X24422D02*
D03*
X24678D02*
D03*
X24934D02*
D03*
D23*
X10900Y4300D02*
D03*
Y6300D02*
D03*
X9223Y4300D02*
D03*
Y6300D02*
D03*
D24*
X18617Y21039D02*
D03*
X18814D02*
D03*
X19011D02*
D03*
X19208D02*
D03*
X19405D02*
D03*
X19602D02*
D03*
X19798D02*
D03*
X19995D02*
D03*
X20192D02*
D03*
X20389D02*
D03*
X20586D02*
D03*
X20783D02*
D03*
Y18361D02*
D03*
X20586D02*
D03*
X20389D02*
D03*
X20192D02*
D03*
X19995D02*
D03*
X19798D02*
D03*
X19602D02*
D03*
X19405D02*
D03*
X19208D02*
D03*
X19011D02*
D03*
X18814D02*
D03*
X18617D02*
D03*
D25*
X21039Y20783D02*
D03*
Y20586D02*
D03*
Y20389D02*
D03*
Y20192D02*
D03*
Y19995D02*
D03*
Y19798D02*
D03*
Y19602D02*
D03*
Y19405D02*
D03*
Y19208D02*
D03*
Y19011D02*
D03*
Y18814D02*
D03*
Y18617D02*
D03*
X18361D02*
D03*
Y18814D02*
D03*
Y19011D02*
D03*
Y19208D02*
D03*
Y19405D02*
D03*
Y19602D02*
D03*
Y19798D02*
D03*
Y19995D02*
D03*
Y20192D02*
D03*
Y20389D02*
D03*
Y20586D02*
D03*
Y20783D02*
D03*
D43*
X18221Y33603D02*
D03*
Y35697D02*
D03*
X20315Y33603D02*
D03*
Y35697D02*
D03*
D44*
X19268Y34650D02*
D03*
D45*
X18260Y28750D02*
D03*
X17040D02*
D03*
D46*
X14250Y1350D02*
D03*
X15250D02*
D03*
X16250D02*
D03*
X17250D02*
D03*
X18250D02*
D03*
X19250D02*
D03*
X20250D02*
D03*
X21250D02*
D03*
X22250D02*
D03*
X23250D02*
D03*
X35550Y23450D02*
D03*
Y22450D02*
D03*
Y21450D02*
D03*
Y20450D02*
D03*
Y19450D02*
D03*
Y18450D02*
D03*
Y17450D02*
D03*
Y16450D02*
D03*
Y15450D02*
D03*
Y14450D02*
D03*
X36550Y23450D02*
D03*
Y22450D02*
D03*
Y21450D02*
D03*
Y20450D02*
D03*
Y19450D02*
D03*
Y18450D02*
D03*
Y17450D02*
D03*
Y16450D02*
D03*
Y15450D02*
D03*
X1950Y23450D02*
D03*
Y22450D02*
D03*
Y21450D02*
D03*
Y20450D02*
D03*
Y19450D02*
D03*
Y18450D02*
D03*
Y17450D02*
D03*
Y16450D02*
D03*
Y15450D02*
D03*
Y14450D02*
D03*
X2950Y23450D02*
D03*
Y22450D02*
D03*
Y21450D02*
D03*
Y20450D02*
D03*
Y19450D02*
D03*
Y18450D02*
D03*
Y17450D02*
D03*
Y16450D02*
D03*
Y15450D02*
D03*
D47*
X24250Y1350D02*
D03*
D48*
X36550Y14450D02*
D03*
X2950D02*
D03*
D49*
X20400Y34650D02*
D03*
X22000Y33350D02*
D03*
X19300Y36375D02*
D03*
X19268Y32500D02*
D03*
X17740Y14540D02*
D03*
X16600Y18600D02*
D03*
X9650Y26490D02*
D03*
X20010Y13440D02*
D03*
X2530Y11870D02*
D03*
X21750Y17400D02*
D03*
X21860Y3970D02*
D03*
X24970Y21430D02*
D03*
X25610Y23220D02*
D03*
X22270Y19205D02*
D03*
X23910Y21080D02*
D03*
X22000Y20070D02*
D03*
X21160Y21580D02*
D03*
X21830Y21250D02*
D03*
X17050Y21850D02*
D03*
X18850Y23231D02*
D03*
X20420Y23636D02*
D03*
X19995Y22850D02*
D03*
X17050Y10680D02*
D03*
X31475Y14035D02*
D03*
X16275Y14020D02*
D03*
X7410D02*
D03*
X11020Y18150D02*
D03*
X17480Y20340D02*
D03*
X14190Y20060D02*
D03*
X16600Y19370D02*
D03*
X15270Y21790D02*
D03*
X23140Y20980D02*
D03*
X27370Y20620D02*
D03*
X18170Y16540D02*
D03*
X14890Y16850D02*
D03*
X20550Y17380D02*
D03*
X18070Y23160D02*
D03*
X5520Y22440D02*
D03*
X17920Y22020D02*
D03*
X12600Y20326D02*
D03*
X25340Y22500D02*
D03*
X31180Y23370D02*
D03*
X26010Y29220D02*
D03*
X25310Y23850D02*
D03*
X20920Y14170D02*
D03*
X3320Y13660D02*
D03*
X2450Y25430D02*
D03*
X32250Y20510D02*
D03*
X22940Y20440D02*
D03*
X23510Y22010D02*
D03*
X4900Y24400D02*
D03*
X14890Y17850D02*
D03*
X20750Y17920D02*
D03*
X18960Y13970D02*
D03*
X19080Y17220D02*
D03*
X17439Y18800D02*
D03*
X22370Y22120D02*
D03*
X18830Y22030D02*
D03*
X21320Y16810D02*
D03*
X17050Y8980D02*
D03*
X15470Y14450D02*
D03*
X18830Y15870D02*
D03*
X19400Y15350D02*
D03*
X33740Y17260D02*
D03*
X19905Y16073D02*
D03*
X6090Y17450D02*
D03*
X16780Y20190D02*
D03*
X7940Y18460D02*
D03*
X19200Y22480D02*
D03*
X2450Y24030D02*
D03*
X13100Y29660D02*
D03*
X26230Y27000D02*
D03*
X1530Y22970D02*
D03*
X19420Y23250D02*
D03*
X22408Y17926D02*
D03*
X26850Y16620D02*
D03*
X22790Y16360D02*
D03*
X23400Y26490D02*
D03*
M02*
