G04*
G04 #@! TF.GenerationSoftware,Altium Limited,Altium Designer,18.1.9 (240)*
G04*
G04 Layer_Color=8388736*
%FSLAX24Y24*%
%MOIN*%
G70*
G01*
G75*
G04:AMPARAMS|DCode=26|XSize=74.9mil|YSize=53.3mil|CornerRadius=0mil|HoleSize=0mil|Usage=FLASHONLY|Rotation=225.000|XOffset=0mil|YOffset=0mil|HoleType=Round|Shape=Rectangle|*
%AMROTATEDRECTD26*
4,1,4,0.0077,0.0453,0.0453,0.0077,-0.0077,-0.0453,-0.0453,-0.0077,0.0077,0.0453,0.0*
%
%ADD26ROTATEDRECTD26*%

G04:AMPARAMS|DCode=27|XSize=165.5mil|YSize=283.6mil|CornerRadius=0mil|HoleSize=0mil|Usage=FLASHONLY|Rotation=45.000|XOffset=0mil|YOffset=0mil|HoleType=Round|Shape=Rectangle|*
%AMROTATEDRECTD27*
4,1,4,0.0418,-0.1588,-0.1588,0.0418,-0.0418,0.1588,0.1588,-0.0418,0.0418,-0.1588,0.0*
%
%ADD27ROTATEDRECTD27*%

G04:AMPARAMS|DCode=28|XSize=74.9mil|YSize=53.3mil|CornerRadius=0mil|HoleSize=0mil|Usage=FLASHONLY|Rotation=135.000|XOffset=0mil|YOffset=0mil|HoleType=Round|Shape=Rectangle|*
%AMROTATEDRECTD28*
4,1,4,0.0453,-0.0077,0.0077,-0.0453,-0.0453,0.0077,-0.0077,0.0453,0.0453,-0.0077,0.0*
%
%ADD28ROTATEDRECTD28*%

%ADD29R,0.0430X0.0482*%
%ADD30R,0.0533X0.0749*%
%ADD31R,0.0513X0.0651*%
%ADD32O,0.0218X0.0611*%
%ADD33R,0.0651X0.0631*%
%ADD34O,0.0174X0.0316*%
%ADD35O,0.0316X0.0174*%
%ADD36R,0.1041X0.1041*%
%ADD37C,0.0887*%
%ADD38C,0.0592*%
%ADD39C,0.0671*%
%ADD40R,0.0671X0.0671*%
%ADD41R,0.0671X0.0671*%
%ADD42C,0.0580*%
D26*
X33100Y28700D02*
D03*
X33977Y27823D02*
D03*
X29450Y32100D02*
D03*
X30327Y31223D02*
D03*
D27*
X28066Y4316D02*
D03*
X30850Y7100D02*
D03*
D28*
X9650Y32250D02*
D03*
X8773Y31373D02*
D03*
X5250Y28050D02*
D03*
X6127Y28927D02*
D03*
D29*
X27019Y17700D02*
D03*
X26381D02*
D03*
X27200Y9850D02*
D03*
X26562D02*
D03*
X30831Y24350D02*
D03*
X31469D02*
D03*
X12850Y12500D02*
D03*
X12212D02*
D03*
X7231Y16300D02*
D03*
X7869D02*
D03*
X7919Y21650D02*
D03*
X7281D02*
D03*
D30*
X13220Y16250D02*
D03*
X11980D02*
D03*
X30530Y22150D02*
D03*
X31770D02*
D03*
X30530Y19900D02*
D03*
X31770D02*
D03*
X26130Y19650D02*
D03*
X27370D02*
D03*
X26010Y28550D02*
D03*
X27250D02*
D03*
X30530Y10900D02*
D03*
X31770D02*
D03*
X30530Y15400D02*
D03*
X31770D02*
D03*
X12010Y14250D02*
D03*
X13250D02*
D03*
X26130Y21900D02*
D03*
X27370D02*
D03*
X6980Y12800D02*
D03*
X8220D02*
D03*
X13250Y9800D02*
D03*
X12010D02*
D03*
X7030Y19800D02*
D03*
X8270D02*
D03*
X8320Y23500D02*
D03*
X7080D02*
D03*
X27370Y26150D02*
D03*
X26130D02*
D03*
X30480Y26400D02*
D03*
X31720D02*
D03*
X27370Y13350D02*
D03*
X26130D02*
D03*
X27370Y15850D02*
D03*
X26130D02*
D03*
X11983Y25500D02*
D03*
X13224D02*
D03*
X26100Y24100D02*
D03*
X27340D02*
D03*
X11983Y23450D02*
D03*
X13224D02*
D03*
X30500Y13150D02*
D03*
X31740D02*
D03*
X22160Y28600D02*
D03*
X23400D02*
D03*
X30500Y17650D02*
D03*
X31740D02*
D03*
D31*
X12974Y17800D02*
D03*
X12226D02*
D03*
X12974Y19750D02*
D03*
X12226D02*
D03*
X12974Y21600D02*
D03*
X12226D02*
D03*
X13100Y28800D02*
D03*
X12352D02*
D03*
X22950Y9800D02*
D03*
X22202D02*
D03*
X27200Y11600D02*
D03*
X26452D02*
D03*
X7199Y14750D02*
D03*
X7947D02*
D03*
X17798Y9800D02*
D03*
X17050D02*
D03*
X7176Y17850D02*
D03*
X7924D02*
D03*
X7350Y25550D02*
D03*
X8098D02*
D03*
D32*
X24166Y33674D02*
D03*
X24422D02*
D03*
X24678D02*
D03*
X24934D02*
D03*
X24166Y35426D02*
D03*
X24422D02*
D03*
X24678D02*
D03*
X24934D02*
D03*
D33*
X10900Y4300D02*
D03*
Y6300D02*
D03*
X9223Y4300D02*
D03*
Y6300D02*
D03*
D34*
X18617Y21039D02*
D03*
X18814D02*
D03*
X19011D02*
D03*
X19208D02*
D03*
X19405D02*
D03*
X19602D02*
D03*
X19798D02*
D03*
X19995D02*
D03*
X20192D02*
D03*
X20389D02*
D03*
X20586D02*
D03*
X20783D02*
D03*
Y18361D02*
D03*
X20586D02*
D03*
X20389D02*
D03*
X20192D02*
D03*
X19995D02*
D03*
X19798D02*
D03*
X19602D02*
D03*
X19405D02*
D03*
X19208D02*
D03*
X19011D02*
D03*
X18814D02*
D03*
X18617D02*
D03*
D35*
X21039Y20783D02*
D03*
Y20586D02*
D03*
Y20389D02*
D03*
Y20192D02*
D03*
Y19995D02*
D03*
Y19798D02*
D03*
Y19602D02*
D03*
Y19405D02*
D03*
Y19208D02*
D03*
Y19011D02*
D03*
Y18814D02*
D03*
Y18617D02*
D03*
X18361D02*
D03*
Y18814D02*
D03*
Y19011D02*
D03*
Y19208D02*
D03*
Y19405D02*
D03*
Y19602D02*
D03*
Y19798D02*
D03*
Y19995D02*
D03*
Y20192D02*
D03*
Y20389D02*
D03*
Y20586D02*
D03*
Y20783D02*
D03*
D36*
X18221Y33603D02*
D03*
Y35697D02*
D03*
X20315Y33603D02*
D03*
Y35697D02*
D03*
D37*
X19268Y34650D02*
D03*
D38*
X18260Y28750D02*
D03*
X17040D02*
D03*
D39*
X14250Y1350D02*
D03*
X15250D02*
D03*
X16250D02*
D03*
X17250D02*
D03*
X18250D02*
D03*
X19250D02*
D03*
X20250D02*
D03*
X21250D02*
D03*
X22250D02*
D03*
X23250D02*
D03*
X35550Y23450D02*
D03*
Y22450D02*
D03*
Y21450D02*
D03*
Y20450D02*
D03*
Y19450D02*
D03*
Y18450D02*
D03*
Y17450D02*
D03*
Y16450D02*
D03*
Y15450D02*
D03*
Y14450D02*
D03*
X36550Y23450D02*
D03*
Y22450D02*
D03*
Y21450D02*
D03*
Y20450D02*
D03*
Y19450D02*
D03*
Y18450D02*
D03*
Y17450D02*
D03*
Y16450D02*
D03*
Y15450D02*
D03*
X1950Y23450D02*
D03*
Y22450D02*
D03*
Y21450D02*
D03*
Y20450D02*
D03*
Y19450D02*
D03*
Y18450D02*
D03*
Y17450D02*
D03*
Y16450D02*
D03*
Y15450D02*
D03*
Y14450D02*
D03*
X2950Y23450D02*
D03*
Y22450D02*
D03*
Y21450D02*
D03*
Y20450D02*
D03*
Y19450D02*
D03*
Y18450D02*
D03*
Y17450D02*
D03*
Y16450D02*
D03*
Y15450D02*
D03*
D40*
X24250Y1350D02*
D03*
D41*
X36550Y14450D02*
D03*
X2950D02*
D03*
D42*
X20400Y34650D02*
D03*
X22000Y33350D02*
D03*
X19300Y36375D02*
D03*
X19268Y32500D02*
D03*
X17740Y14540D02*
D03*
X16600Y18600D02*
D03*
X9650Y26490D02*
D03*
X20010Y13440D02*
D03*
X2530Y11870D02*
D03*
X21750Y17400D02*
D03*
X21860Y3970D02*
D03*
X24970Y21430D02*
D03*
X25610Y23220D02*
D03*
X22270Y19205D02*
D03*
X23910Y21080D02*
D03*
X22000Y20070D02*
D03*
X21160Y21580D02*
D03*
X21830Y21250D02*
D03*
X17050Y21850D02*
D03*
X18850Y23231D02*
D03*
X20420Y23636D02*
D03*
X19995Y22850D02*
D03*
X17050Y10680D02*
D03*
X31475Y14035D02*
D03*
X16275Y14020D02*
D03*
X7410D02*
D03*
X11020Y18150D02*
D03*
X17480Y20340D02*
D03*
X14190Y20060D02*
D03*
X16600Y19370D02*
D03*
X15270Y21790D02*
D03*
X23140Y20980D02*
D03*
X27370Y20620D02*
D03*
X18170Y16540D02*
D03*
X14890Y16850D02*
D03*
X20550Y17380D02*
D03*
X18070Y23160D02*
D03*
X5520Y22440D02*
D03*
X17920Y22020D02*
D03*
X12600Y20326D02*
D03*
X25340Y22500D02*
D03*
X31180Y23370D02*
D03*
X26010Y29220D02*
D03*
X25310Y23850D02*
D03*
X20920Y14170D02*
D03*
X3320Y13660D02*
D03*
X2450Y25430D02*
D03*
X32250Y20510D02*
D03*
X22940Y20440D02*
D03*
X23510Y22010D02*
D03*
X4900Y24400D02*
D03*
X14890Y17850D02*
D03*
X20750Y17920D02*
D03*
X18960Y13970D02*
D03*
X19080Y17220D02*
D03*
X17439Y18800D02*
D03*
X22370Y22120D02*
D03*
X18830Y22030D02*
D03*
X21320Y16810D02*
D03*
X17050Y8980D02*
D03*
X15470Y14450D02*
D03*
X18830Y15870D02*
D03*
X19400Y15350D02*
D03*
X33740Y17260D02*
D03*
X19905Y16073D02*
D03*
X6090Y17450D02*
D03*
X16780Y20190D02*
D03*
X7940Y18460D02*
D03*
X19200Y22480D02*
D03*
X2450Y24030D02*
D03*
X13100Y29660D02*
D03*
X26230Y27000D02*
D03*
X1530Y22970D02*
D03*
X19420Y23250D02*
D03*
X22408Y17926D02*
D03*
X26850Y16620D02*
D03*
X22790Y16360D02*
D03*
X23400Y26490D02*
D03*
M02*
